<svg width="2340" height="1862.752462245568" viewBox="0 0 2340 1862.752462245568" xmlns="http://www.w3.org/2000/svg"><rect width="2340" height="1862.752462245568" fill="black"></rect><g class="graphicObject31"><g><path d="M 100 1.7474936650560488e-12 L100,187.7872619829266 C 200 187.7872619829266 510 166.7872619829265 610 166.7872619829265 L610,-20.999999999998153 C 510 -20.999999999998153 200 1.7474936650560488e-12 100 1.7474936650560488e-12 Z" transform="matrix(1 0 0 -1 200 1590.3184504267892)" fill="rgb(99.44470774091627, 181.45050026329645, 170.7093206951027)" stroke="white" stroke-width="2" opacity="0.5" class="graphicObject31"></path><path d="M 100 187.7872619829315 L100,514.6421536441203 C 200 514.6421536441203 510 499.64215364412007 610 499.64215364412007 L610,172.78726198293162 C 510 172.78726198293162 200 187.7872619829315 100 187.7872619829315 Z" transform="matrix(1 0 0 -1 200 1590.3184504267892)" fill="rgb(182.84412848867822, 226.5376513954713, 161.74828857293312)" stroke="white" stroke-width="2" opacity="0.5" class="graphicObject31"></path><path d="M 100 514.6421536441245 L100,627.7084701247527 C 200 627.7084701247527 510 618.7084701247526 610 618.7084701247526 L610,505.64215364412456 C 510 505.64215364412456 200 514.6421536441245 100 514.6421536441245 Z" transform="matrix(1 0 0 -1 200 1590.3184504267892)" fill="rgb(70.23064770932069, 141.74934175882044, 179.69826224328594)" stroke="white" stroke-width="2" opacity="0.5" class="graphicObject31"></path><path d="M 100 627.7084701247555 L100,817.3342087984223 C 200 817.3342087984223 510 814.3342087984222 610 814.3342087984222 L610,624.7084701247556 C 510 624.7084701247556 200 627.7084701247555 100 627.7084701247555 Z" transform="matrix(1 0 0 -1 200 1590.3184504267892)" fill="rgb(100.16350710900473, 182.42733017377566, 170.48815165876778)" stroke="white" stroke-width="2" opacity="0.5" class="graphicObject31"></path><path d="M 100 817.3342087984246 L100,870.7813525935647 C 200 870.7813525935647 510 873.7813525935646 610 873.7813525935646 L610,820.3342087984246 C 510 820.3342087984246 200 817.3342087984246 100 817.3342087984246 Z" transform="matrix(1 0 0 -1 200 1590.3184504267892)" fill="rgb(79.69773565034228, 108.11532385466035, 171.70510795155343)" stroke="white" stroke-width="2" opacity="0.5" class="graphicObject31"></path><path d="M 100 876.7813525935658 L100,934.4307288246874 C 200 934.4307288246874 510 937.4307288246874 610 937.4307288246874 L610,879.7813525935658 C 510 879.7813525935658 200 876.7813525935658 100 876.7813525935658 Z" transform="matrix(1 0 0 -1 200 1590.3184504267892)" fill="rgb(78.51816745655609, 110.51658767772511, 172.50552922590836)" stroke="white" stroke-width="2" opacity="0.5" class="graphicObject31"></path><path d="M 100 934.4307288246896 L100,1094.6408404464855 C 200 1094.6408404464855 510 1103.6408404464855 610 1103.6408404464855 L610,943.4307288246897 C 510 943.4307288246897 200 934.4307288246896 100 934.4307288246896 Z" transform="matrix(1 0 0 -1 200 1590.3184504267892)" fill="rgb(88.66271721958924, 166.79805160610846, 174.0268562401264)" stroke="white" stroke-width="2" opacity="0.5" class="graphicObject31"></path><path d="M 100 1094.640840446489 L100,1275.8621142481927 C 200 1275.8621142481927 510 1290.8621142481925 610 1290.8621142481925 L610,1109.640840446489 C 510 1109.640840446489 200 1094.640840446489 100 1094.640840446489 Z" transform="matrix(1 0 0 -1 200 1590.3184504267892)" fill="rgb(96.87756714060032, 177.96182201158507, 171.49921011058453)" stroke="white" stroke-width="2" opacity="0.5" class="graphicObject31"></path><path d="M 100 1275.8621142481948 L100,1317.8844386080102 C 200 1317.8844386080102 510 1338.88443860801 610 1338.88443860801 L610,1296.8621142481948 C 510 1296.8621142481948 200 1275.8621142481948 100 1275.8621142481948 Z" transform="matrix(1 0 0 -1 200 1590.3184504267892)" fill="rgb(82.90468667719853, 101.58688783570301, 169.52896261190102)" stroke="white" stroke-width="2" opacity="0.5" class="graphicObject31"></path><path d="M 710 -20.999999999998707 L710,116.8857518056454 C 810 116.8857518056454 1120 65.45173998686653 1220 65.45173998686653 L1220,-72.43401181877744 C 1120 -72.43401181877744 810 -20.999999999998707 710 -20.999999999998707 Z" transform="matrix(1 0 0 -1 200 1590.3184504267892)" fill="rgb(79.93443917851499, 154.93654555028962, 176.71248025276464)" stroke="white" stroke-width="2" opacity="0.5" class="graphicObject31"></path><path d="M 710 116.88575180564692 L710,139.21011162179883 C 810 139.21011162179883 1120 93.77609980302 1220 93.77609980302 L1220,71.45173998686812 C 1120 71.45173998686812 810 116.88575180564692 710 116.88575180564692 Z" transform="matrix(1 0 0 -1 200 1590.3184504267892)" fill="rgb(88.43391258557135, 90.33096366508688, 165.77698788836227)" stroke="white" stroke-width="2" opacity="0.5" class="graphicObject31"></path><path d="M 710 139.21011162179929 L710,166.7872619829281 C 810 166.7872619829281 1120 127.35325016414932 1220 127.35325016414932 L1220,99.77609980302051 C 1120 99.77609980302051 810 139.21011162179929 710 139.21011162179929 Z" transform="matrix(1 0 0 -1 200 1590.3184504267892)" fill="rgb(86.9594523433386, 93.33254344391786, 166.77751448130596)" stroke="white" stroke-width="2" opacity="0.5" class="graphicObject31"></path><path d="M 710 172.78726198292844 L710,178.04005252790537 C 810 178.04005252790537 1120 132.60604070912655 1220 132.60604070912655 L1220,127.35325016414963 C 1120 127.35325016414963 810 172.78726198292844 710 172.78726198292844 Z" transform="matrix(1 0 0 -1 200 1590.3184504267892)" fill="rgb(93.2259083728278, 80.57582938388626, 162.52527646129542)" stroke="white" stroke-width="2" opacity="0.5" class="graphicObject31"></path><path d="M 710 178.04005252790614 L710,257.09455022980876 C 810 257.09455022980876 1120 217.66053841102993 1220 217.66053841102993 L1220,138.6060407091274 C 1120 138.6060407091274 810 178.04005252790614 710 178.04005252790614 Z" transform="matrix(1 0 0 -1 200 1590.3184504267892)" fill="rgb(72.50974196945761, 122.74802527646129, 176.58267509215375)" stroke="white" stroke-width="2" opacity="0.5" class="graphicObject31"></path><path d="M 710 505.6421536441239 L710,560.5338148391327 C 810 560.5338148391327 1120 272.55219960603995 1220 272.55219960603995 L1220,217.6605384110312 C 1120 217.6605384110312 810 505.6421536441239 710 505.6421536441239 Z" transform="matrix(1 0 0 -1 200 1590.3184504267892)" fill="rgb(79.29225908372828, 108.94075829383885, 171.98025276461294)" stroke="white" stroke-width="2" opacity="0.5" class="graphicObject31"></path><path d="M 710 257.09455022981007 L710,315.79448456992714 C 810 315.79448456992714 1120 337.2521339461582 1220 337.2521339461582 L1220,278.5521996060412 C 1120 278.5521996060412 810 257.09455022981007 710 257.09455022981007 Z" transform="matrix(1 0 0 -1 200 1590.3184504267892)" fill="rgb(78.22327540810954, 111.1169036334913, 172.70563454449712)" stroke="white" stroke-width="2" opacity="0.5" class="graphicObject31"></path><path d="M 710 560.5338148391335 L710,584.5653315824029 C 810 584.5653315824029 1120 361.2836506894284 1220 361.2836506894284 L1220,337.252133946159 C 1120 337.252133946159 810 560.5338148391335 710 560.5338148391335 Z" transform="matrix(1 0 0 -1 200 1590.3184504267892)" fill="rgb(87.95471300684571, 91.30647709320695, 166.102159031069)" stroke="white" stroke-width="2" opacity="0.5" class="graphicObject31"></path><path d="M 710 315.79448456992793 L710,344.684832567301 C 810 344.684832567301 1120 396.1739986868019 1220 396.1739986868019 L1220,367.2836506894289 C 1120 367.2836506894289 810 315.79448456992793 710 315.79448456992793 Z" transform="matrix(1 0 0 -1 200 1590.3184504267892)" fill="rgb(86.5908372827804, 94.08293838862559, 167.02764612954186)" stroke="white" stroke-width="2" opacity="0.5" class="graphicObject31"></path><path d="M 710 584.5653315824034 L710,605.5764937623111 C 810 605.5764937623111 1120 417.18516086671 1220 417.18516086671 L1220,396.17399868680235 C 1120 396.17399868680235 810 584.5653315824034 710 584.5653315824034 Z" transform="matrix(1 0 0 -1 200 1590.3184504267892)" fill="rgb(88.80252764612953, 89.58056872037915, 165.5268562401264)" stroke="white" stroke-width="2" opacity="0.5" class="graphicObject31"></path><path d="M 710 344.68483256730144 L710,361.09980302035433 C 810 361.09980302035433 1120 439.6001313197633 1220 439.6001313197633 L1220,423.1851608667105 C 1120 423.1851608667105 810 344.68483256730144 710 344.68483256730144 Z" transform="matrix(1 0 0 -1 200 1590.3184504267892)" fill="rgb(90.0926803580832, 86.95418641390205, 164.6513954713007)" stroke="white" stroke-width="2" opacity="0.5" class="graphicObject31"></path><path d="M 710 624.7084701247541 L710,660.8214051214703 C 810 660.8214051214703 1120 475.71306631648014 1220 475.71306631648014 L1220,439.6001313197639 C 1120 439.6001313197639 810 624.7084701247541 710 624.7084701247541 Z" transform="matrix(1 0 0 -1 200 1590.3184504267892)" fill="rgb(84.56345444971038, 98.21011058451816, 168.4033701948394)" stroke="white" stroke-width="2" opacity="0.5" class="graphicObject31"></path><path d="M 710 361.0998030203545 L710,369.1103086014443 C 810 369.1103086014443 1120 489.7235718975703 1220 489.7235718975703 L1220,481.71306631648054 C 1120 481.71306631648054 810 361.0998030203545 710 361.0998030203545 Z" transform="matrix(1 0 0 -1 200 1590.3184504267892)" fill="rgb(92.45181674565562, 82.15165876777252, 163.05055292259084)" stroke="white" stroke-width="2" opacity="0.5" class="graphicObject31"></path><path d="M 710 660.8214051214708 L710,665.2862770847012 C 810 665.2862770847012 1120 494.18844386080076 1220 494.18844386080076 L1220,489.72357189757037 C 1120 489.72357189757037 810 660.8214051214708 710 660.8214051214708 Z" transform="matrix(1 0 0 -1 200 1590.3184504267892)" fill="rgb(93.44707740916272, 80.12559241706161, 162.37519747235388)" stroke="white" stroke-width="2" opacity="0.5" class="graphicObject31"></path><path d="M 710 879.7813525935652 L710,883.0643466841758 C 810 883.0643466841758 1120 497.4714379514114 1220 497.4714379514114 L1220,494.1884438608009 C 1120 494.1884438608009 810 879.7813525935652 710 879.7813525935652 Z" transform="matrix(1 0 0 -1 200 1590.3184504267892)" fill="rgb(93.77883096366509, 79.45023696682463, 162.15007898894152)" stroke="white" stroke-width="2" opacity="0.5" class="graphicObject31"></path><path d="M 710 369.1103086014445 L710,379.61588969139837 C 810 379.61588969139837 1120 514.4110308601441 1220 514.4110308601441 L1220,503.90544977019033 C 1120 503.90544977019033 810 369.1103086014445 710 369.1103086014445 Z" transform="matrix(1 0 0 -1 200 1590.3184504267892)" fill="rgb(91.75144813059504, 83.57740916271722, 163.52580305423908)" stroke="white" stroke-width="2" opacity="0.5" class="graphicObject31"></path><path d="M 710 665.2862770847012 L710,667.9126723571896 C 810 667.9126723571896 1120 517.0374261326327 1220 517.0374261326327 L1220,514.4110308601443 C 1120 514.4110308601443 810 665.2862770847012 710 665.2862770847012 Z" transform="matrix(1 0 0 -1 200 1590.3184504267892)" fill="rgb(93.96313849394417, 79.07503949447077, 162.02501316482358)" stroke="white" stroke-width="2" opacity="0.5" class="graphicObject31"></path><path d="M 710 379.6158896913985 L710,387.7577150361127 C 810 387.7577150361127 1120 531.1792514773471 1220 531.1792514773471 L1220,523.0374261326328 C 1120 523.0374261326328 810 379.6158896913985 710 379.6158896913985 Z" transform="matrix(1 0 0 -1 200 1590.3184504267892)" fill="rgb(92.41495523959979, 82.22669826224329, 163.07556608741442)" stroke="white" stroke-width="2" opacity="0.5" class="graphicObject31"></path><path d="M 710 667.9126723571898 L710,674.2160210111621 C 810 674.2160210111621 1120 537.4826001313195 1220 537.4826001313195 L1220,531.1792514773472 C 1120 531.1792514773472 810 667.9126723571898 710 667.9126723571898 Z" transform="matrix(1 0 0 -1 200 1590.3184504267892)" fill="rgb(92.93101632438125, 81.17614533965244, 162.72538177988415)" stroke="white" stroke-width="2" opacity="0.5" class="graphicObject31"></path><path d="M 710 387.75771503611287 L710,394.323703217334 C 810 394.323703217334 1120 550.4826001313195 1220 550.4826001313195 L1220,543.9166119500984 C 1120 543.9166119500984 810 387.75771503611287 710 387.75771503611287 Z" transform="matrix(1 0 0 -1 200 1590.3184504267892)" fill="rgb(92.85729331226962, 81.326224328594, 162.77540810953133)" stroke="white" stroke-width="2" opacity="0.5" class="graphicObject31"></path><path d="M 710 674.2160210111622 L710,680.7820091923834 C 810 680.7820091923834 1120 557.0485883125407 1220 557.0485883125407 L1220,550.4826001313196 C 1120 550.4826001313196 810 674.2160210111622 710 674.2160210111622 Z" transform="matrix(1 0 0 -1 200 1590.3184504267892)" fill="rgb(92.85729331226962, 81.326224328594, 162.77540810953133)" stroke="white" stroke-width="2" opacity="0.5" class="graphicObject31"></path><path d="M 710 394.32370321733424 L710,414.80958634274424 C 810 414.80958634274424 1120 583.5344714379511 1220 583.5344714379511 L1220,563.0485883125411 C 1120 563.0485883125411 810 394.32370321733424 710 394.32370321733424 Z" transform="matrix(1 0 0 -1 200 1590.3184504267892)" fill="rgb(88.94997367035282, 89.28041074249606, 165.426803580832)" stroke="white" stroke-width="2" opacity="0.5" class="graphicObject31"></path><path d="M 710 680.7820091923836 L710,699.0354563361784 C 810 699.0354563361784 1120 601.7879185817462 1220 601.7879185817462 L1220,583.5344714379514 C 1120 583.5344714379514 810 680.7820091923836 710 680.7820091923836 Z" transform="matrix(1 0 0 -1 200 1590.3184504267892)" fill="rgb(89.57661927330173, 88.00473933649289, 165.00157977883097)" stroke="white" stroke-width="2" opacity="0.5" class="graphicObject31"></path><path d="M 710 883.064346684176 L710,898.1661195009847 C 810 898.1661195009847 1120 616.8896913985552 1220 616.8896913985552 L1220,601.7879185817466 C 1120 601.7879185817466 810 883.064346684176 710 883.064346684176 Z" transform="matrix(1 0 0 -1 200 1590.3184504267892)" fill="rgb(90.46129541864138, 86.2037914691943, 164.40126382306477)" stroke="white" stroke-width="2" opacity="0.5" class="graphicObject31"></path><path d="M 710 414.8095863427444 L710,417.30466185160844 C 810 417.30466185160844 1120 625.3847669074195 1220 625.3847669074195 L1220,622.8896913985554 C 1120 622.8896913985554 810 414.8095863427444 710 414.8095863427444 Z" transform="matrix(1 0 0 -1 200 1590.3184504267892)" fill="rgb(94, 79, 162)" stroke="white" stroke-width="2" opacity="0.5" class="graphicObject31"></path><path d="M 710 699.0354563361788 L710,728.1884438608007 C 810 728.1884438608007 1120 654.5377544320417 1220 654.5377544320417 L1220,625.3847669074198 C 1120 625.3847669074198 810 699.0354563361788 710 699.0354563361788 Z" transform="matrix(1 0 0 -1 200 1590.3184504267892)" fill="rgb(86.51711427066877, 94.23301737756714, 167.07767245918905)" stroke="white" stroke-width="2" opacity="0.5" class="graphicObject31"></path><path d="M 710 898.1661195009851 L710,932.1779382797107 C 810 932.1779382797107 1120 688.5495732107677 1220 688.5495732107677 L1220,654.5377544320422 C 1120 654.5377544320422 810 898.1661195009851 710 898.1661195009851 Z" transform="matrix(1 0 0 -1 200 1590.3184504267892)" fill="rgb(85.15323854660346, 97.00947867298578, 168.00315955766195)" stroke="white" stroke-width="2" opacity="0.5" class="graphicObject31"></path><path d="M 710 417.30466185160884 L710,454.99343401181824 C 810 454.99343401181824 1120 732.2383453709778 1220 732.2383453709778 L1220,694.5495732107684 C 1120 694.5495732107684 810 417.30466185160884 710 417.30466185160884 Z" transform="matrix(1 0 0 -1 200 1590.3184504267892)" fill="rgb(84.12111637704055, 99.11058451816746, 168.70352817272249)" stroke="white" stroke-width="2" opacity="0.5" class="graphicObject31"></path><path d="M 710 728.1884438608014 L710,777.1707156927112 C 810 777.1707156927112 1120 781.2206172028883 1220 781.2206172028883 L1220,732.2383453709785 C 1120 732.2383453709785 810 728.1884438608014 710 728.1884438608014 Z" transform="matrix(1 0 0 -1 200 1590.3184504267892)" fill="rgb(80.95102685624013, 105.56398104265404, 170.85466034755132)" stroke="white" stroke-width="2" opacity="0.5" class="graphicObject31"></path><path d="M 710 932.1779382797112 L710,937.4307288246881 C 810 937.4307288246881 1120 786.4734077478657 1220 786.4734077478657 L1220,781.2206172028888 C 1120 781.2206172028888 810 932.1779382797112 710 932.1779382797112 Z" transform="matrix(1 0 0 -1 200 1590.3184504267892)" fill="rgb(93.2259083728278, 80.57582938388626, 162.52527646129542)" stroke="white" stroke-width="2" opacity="0.5" class="graphicObject31"></path><path d="M 710 454.99343401181886 L710,483.8837820091919 C 810 483.8837820091919 1120 821.3637557452391 1220 821.3637557452391 L1220,792.4734077478661 C 1120 792.4734077478661 810 454.99343401181886 710 454.99343401181886 Z" transform="matrix(1 0 0 -1 200 1590.3184504267892)" fill="rgb(86.5908372827804, 94.08293838862559, 167.02764612954186)" stroke="white" stroke-width="2" opacity="0.5" class="graphicObject31"></path><path d="M 710 483.8837820091922 L710,486.9041365725539 C 810 486.9041365725539 1120 830.3841103086013 1220 830.3841103086013 L1220,827.3637557452396 C 1120 827.3637557452396 810 483.8837820091922 710 483.8837820091922 Z" transform="matrix(1 0 0 -1 200 1590.3184504267892)" fill="rgb(93.85255397577673, 79.30015797788309, 162.10005265929436)" stroke="white" stroke-width="2" opacity="0.5" class="graphicObject31"></path><path d="M 710 777.1707156927116 L710,780.0597504924489 C 810 780.0597504924489 1120 833.2731451083387 1220 833.2731451083387 L1220,830.3841103086014 C 1120 830.3841103086014 810 777.1707156927116 710 777.1707156927116 Z" transform="matrix(1 0 0 -1 200 1590.3184504267892)" fill="rgb(93.88941548183254, 79.22511848341232, 162.07503949447076)" stroke="white" stroke-width="2" opacity="0.5" class="graphicObject31"></path><path d="M 710 820.3342087984241 L710,831.4963887065 C 810 831.4963887065 1120 844.4353250164147 1220 844.4353250164147 L1220,833.2731451083388 C 1120 833.2731451083388 810 820.3342087984241 710 820.3342087984241 Z" transform="matrix(1 0 0 -1 200 1590.3184504267892)" fill="rgb(91.56714060031595, 83.95260663507109, 163.65086887835702)" stroke="white" stroke-width="2" opacity="0.5" class="graphicObject31"></path><path d="M 710 486.904136572554 L710,494.3893630991461 C 810 494.3893630991461 1120 857.9205515430069 1220 857.9205515430069 L1220,850.4353250164148 C 1120 850.4353250164148 810 486.904136572554 710 486.904136572554 Z" transform="matrix(1 0 0 -1 200 1590.3184504267892)" fill="rgb(92.59926276987889, 81.85150078988941, 162.95050026329648)" stroke="white" stroke-width="2" opacity="0.5" class="graphicObject31"></path><path d="M 710 780.0597504924493 L710,814.3342087984237 C 810 814.3342087984237 1120 892.1950098489817 1220 892.1950098489817 L1220,857.9205515430074 C 1120 857.9205515430074 810 780.0597504924493 710 780.0597504924493 Z" transform="matrix(1 0 0 -1 200 1590.3184504267892)" fill="rgb(85.07951553449183, 97.15955766192732, 168.0531858873091)" stroke="white" stroke-width="2" opacity="0.5" class="graphicObject31"></path><path d="M 710 831.4963887065006 L710,873.7813525935649 C 810 873.7813525935649 1120 934.4799737360466 1220 934.4799737360466 L1220,892.1950098489825 C 1120 892.1950098489825 810 831.4963887065006 710 831.4963887065006 Z" transform="matrix(1 0 0 -1 200 1590.3184504267892)" fill="rgb(82.83096366508688, 101.73696682464455, 169.57898894154818)" stroke="white" stroke-width="2" opacity="0.5" class="graphicObject31"></path><path d="M 710 943.4307288246894 L710,1086.5692711753104 C 810 1086.5692711753104 1120 1083.6185160866694 1220 1083.6185160866694 L1220,940.4799737360485 C 1120 940.4799737360485 810 943.4307288246894 710 943.4307288246894 Z" transform="matrix(1 0 0 -1 200 1590.3184504267892)" fill="rgb(81.98815165876778, 157.72748815165875, 176.08056872037915)" stroke="white" stroke-width="2" opacity="0.5" class="graphicObject31"></path><path d="M 710 1086.569271175312 L710,1103.640840446487 C 810 1103.640840446487 1120 1106.6900853578459 1220 1106.6900853578459 L1220,1089.618516086671 C 1120 1089.618516086671 810 1086.569271175312 710 1086.569271175312 Z" transform="matrix(1 0 0 -1 200 1590.3184504267892)" fill="rgb(89.9083728278041, 87.32938388625591, 164.77646129541864)" stroke="white" stroke-width="2" opacity="0.5" class="graphicObject31"></path><path d="M 710 494.3893630991463 L710,499.6421536441232 C 810 499.6421536441232 1120 1117.942875902823 1220 1117.942875902823 L1220,1112.690085357846 C 1120 1112.690085357846 810 494.3893630991463 710 494.3893630991463 Z" transform="matrix(1 0 0 -1 200 1590.3184504267892)" fill="rgb(93.2259083728278, 80.57582938388626, 162.52527646129542)" stroke="white" stroke-width="2" opacity="0.5" class="graphicObject31"></path><path d="M 710 605.5764937623113 L710,618.7084701247536 C 810 618.7084701247536 1120 1131.0748522652655 1220 1131.0748522652655 L1220,1117.9428759028233 C 1120 1117.9428759028233 810 605.5764937623113 710 605.5764937623113 Z" transform="matrix(1 0 0 -1 200 1590.3184504267892)" fill="rgb(91.01421800947867, 85.0781990521327, 164.0260663507109)" stroke="white" stroke-width="2" opacity="0.5" class="graphicObject31"></path><path d="M 710 1109.6408404464878 L710,1177.9271175311878 C 810 1177.9271175311878 1120 1205.3611293499662 1220 1205.3611293499662 L1220,1137.0748522652664 C 1120 1137.0748522652664 810 1109.6408404464878 710 1109.6408404464878 Z" transform="matrix(1 0 0 -1 200 1590.3184504267892)" fill="rgb(75.53238546603475, 116.59478672985782, 174.53159557661928)" stroke="white" stroke-width="2" opacity="0.5" class="graphicObject31"></path><path d="M 710 1177.927117531189 L710,1248.8397898883775 C 810 1248.8397898883775 1120 1282.2738017071558 1220 1282.2738017071558 L1220,1211.3611293499675 C 1120 1211.3611293499675 810 1177.927117531189 710 1177.927117531189 Z" transform="matrix(1 0 0 -1 200 1590.3184504267892)" fill="rgb(74.79515534491838, 118.0955766192733, 175.0318588730911)" stroke="white" stroke-width="2" opacity="0.5" class="graphicObject31"></path><path d="M 710 1248.8397898883784 L710,1268.5377544320418 C 810 1268.5377544320418 1120 1307.9717662508203 1220 1307.9717662508203 L1220,1288.273801707157 C 1120 1288.273801707157 810 1248.8397898883784 710 1248.8397898883784 Z" transform="matrix(1 0 0 -1 200 1590.3184504267892)" fill="rgb(89.17114270668773, 88.83017377567141, 165.27672459189046)" stroke="white" stroke-width="2" opacity="0.5" class="graphicObject31"></path><path d="M 710 1268.5377544320422 L710,1290.862114248194 C 810 1290.862114248194 1120 1336.2961260669726 1220 1336.2961260669726 L1220,1313.9717662508208 C 1120 1313.9717662508208 810 1268.5377544320422 710 1268.5377544320422 Z" transform="matrix(1 0 0 -1 200 1590.3184504267892)" fill="rgb(88.43391258557135, 90.33096366508688, 165.77698788836227)" stroke="white" stroke-width="2" opacity="0.5" class="graphicObject31"></path><path d="M 710 1296.8621142481945 L710,1319.1864740643464 C 810 1319.1864740643464 1120 1364.620485883125 1220 1364.620485883125 L1220,1342.296126066973 C 1120 1342.296126066973 810 1296.8621142481945 710 1296.8621142481945 Z" transform="matrix(1 0 0 -1 200 1590.3184504267892)" fill="rgb(88.43391258557135, 90.33096366508688, 165.77698788836227)" stroke="white" stroke-width="2" opacity="0.5" class="graphicObject31"></path><path d="M 710 1319.1864740643468 L710,1338.8844386080102 C 810 1338.8844386080102 1120 1390.3184504267888 1220 1390.3184504267888 L1220,1370.6204858831254 C 1120 1370.6204858831254 810 1319.1864740643468 710 1319.1864740643468 Z" transform="matrix(1 0 0 -1 200 1590.3184504267892)" fill="rgb(89.17114270668773, 88.83017377567141, 165.27672459189046)" stroke="white" stroke-width="2" opacity="0.5" class="graphicObject31"></path><path d="M 1320 -72.4340118187775 L1320,65.4517399868666 C 1420 65.4517399868666 1730 131.8857518056454 1830 131.8857518056454 L1830,-5.9999999999985505 C 1730 -5.9999999999985505 1420 -72.4340118187775 1320 -72.4340118187775 Z" transform="matrix(1 0 0 -1 200 1590.3184504267892)" fill="rgb(79.93443917851499, 154.93654555028962, 176.71248025276464)" stroke="white" stroke-width="2" opacity="0.5" class="graphicObject31"></path><path d="M 1320 71.45173998686812 L1320,93.77609980302003 C 1420 93.77609980302003 1730 154.21011162179892 1830 154.21011162179892 L1830,131.88575180564703 C 1730 131.88575180564703 1420 71.45173998686812 1320 71.45173998686812 Z" transform="matrix(1 0 0 -1 200 1590.3184504267892)" fill="rgb(88.43391258557135, 90.33096366508688, 165.77698788836227)" stroke="white" stroke-width="2" opacity="0.5" class="graphicObject31"></path><path d="M 1320 99.77609980302056 L1320,132.6060407091263 C 1420 132.6060407091263 1730 187.04005252790517 1830 187.04005252790517 L1830,154.21011162179946 C 1730 154.21011162179946 1420 99.77609980302056 1320 99.77609980302056 Z" transform="matrix(1 0 0 -1 200 1590.3184504267892)" fill="rgb(85.48499210110586, 96.33412322274881, 167.7780410742496)" stroke="white" stroke-width="2" opacity="0.5" class="graphicObject31"></path><path d="M 1320 138.60604070912785 L1320,272.55219960603927 C 1420 272.55219960603927 1730 320.9862114248181 1830 320.9862114248181 L1830,187.04005252790685 C 1730 187.04005252790685 1420 138.60604070912785 1320 138.60604070912785 Z" transform="matrix(1 0 0 -1 200 1590.3184504267892)" fill="rgb(78.39415481832543, 152.84333859926275, 177.18641390205372)" stroke="white" stroke-width="2" opacity="0.5" class="graphicObject31"></path><path d="M 1320 278.55219960604137 L1320,361.2836506894278 C 1420 361.2836506894278 1730 403.7176625082067 1830 403.7176625082067 L1830,320.9862114248203 C 1730 320.9862114248203 1420 278.55219960604137 1320 278.55219960604137 Z" transform="matrix(1 0 0 -1 200 1590.3184504267892)" fill="rgb(71.47761979989468, 124.84913112164297, 177.28304370721432)" stroke="white" stroke-width="2" opacity="0.5" class="graphicObject31"></path><path d="M 1320 367.2836506894289 L1320,400.5075508864079 C 1420 400.5075508864079 1730 436.9415627051868 1830 436.9415627051868 L1830,403.7176625082078 C 1730 403.7176625082078 1420 367.2836506894289 1320 367.2836506894289 Z" transform="matrix(1 0 0 -1 200 1590.3184504267892)" fill="rgb(85.37440758293839, 96.55924170616113, 167.85308056872037)" stroke="white" stroke-width="2" opacity="0.5" class="graphicObject31"></path><path d="M 1320 400.5075508864083 L1320,408.78069599474696 C 1420 408.78069599474696 1730 1008.273145108339 1830 1008.273145108339 L1830,1000.0000000000003 C 1730 1000.0000000000003 1420 400.5075508864083 1320 400.5075508864083 Z" transform="matrix(1 0 0 -1 200 1590.3184504267892)" fill="rgb(92.37809373354396, 82.30173775671406, 163.10057925223802)" stroke="white" stroke-width="2" opacity="0.5" class="graphicObject31"></path><path d="M 1320 408.7806959947471 L1320,417.18516086671013 C 1420 417.18516086671013 1730 1185.6454366382143 1830 1185.6454366382143 L1830,1177.2409717662513 C 1730 1177.2409717662513 1420 408.7806959947471 1320 408.7806959947471 Z" transform="matrix(1 0 0 -1 200 1590.3184504267892)" fill="rgb(92.34123222748815, 82.37677725118483, 163.12559241706163)" stroke="white" stroke-width="2" opacity="0.5" class="graphicObject31"></path><path d="M 1320 423.1851608667108 L1320,475.71306631648 C 1420 475.71306631648 1730 489.4694681549568 1830 489.4694681549568 L1830,436.94156270518766 C 1730 436.94156270518766 1420 423.1851608667108 1320 423.1851608667108 Z" transform="matrix(1 0 0 -1 200 1590.3184504267892)" fill="rgb(79.95576619273302, 107.59004739336493, 171.5300157977883)" stroke="white" stroke-width="2" opacity="0.5" class="graphicObject31"></path><path d="M 1320 481.71306631648054 L1320,492.6126066973076 C 1420 492.6126066973076 1730 500.36900853578453 1830 500.36900853578453 L1830,489.46946815495744 C 1730 489.46946815495744 1420 481.71306631648054 1320 481.71306631648054 Z" transform="matrix(1 0 0 -1 200 1590.3184504267892)" fill="rgb(91.6408636124276, 83.80252764612953, 163.60084254870984)" stroke="white" stroke-width="2" opacity="0.5" class="graphicObject31"></path><path d="M 1320 492.6126066973078 L1320,497.4714379514115 C 1420 497.4714379514115 1730 1309.7019041365725 1830 1309.7019041365725 L1830,1304.8430728824687 C 1730 1304.8430728824687 1420 492.6126066973078 1320 492.6126066973078 Z" transform="matrix(1 0 0 -1 200 1590.3184504267892)" fill="rgb(93.33649289099526, 80.35071090047393, 162.45023696682463)" stroke="white" stroke-width="2" opacity="0.5" class="graphicObject31"></path><path d="M 1320 503.90544977019033 L1320,517.0374261326326 C 1420 517.0374261326326 1730 513.5009848982271 1830 513.5009848982271 L1830,500.3690085357848 C 1730 500.3690085357848 1420 503.90544977019033 1320 503.90544977019033 Z" transform="matrix(1 0 0 -1 200 1590.3184504267892)" fill="rgb(91.01421800947867, 85.0781990521327, 164.0260663507109)" stroke="white" stroke-width="2" opacity="0.5" class="graphicObject31"></path><path d="M 1320 523.037426132633 L1320,537.4826001313195 C 1420 537.4826001313195 1730 527.9461588969139 1830 527.9461588969139 L1830,513.5009848982273 C 1730 513.5009848982273 1420 523.037426132633 1320 523.037426132633 Z" transform="matrix(1 0 0 -1 200 1590.3184504267892)" fill="rgb(90.64560294892048, 85.82859399684045, 164.27619799894683)" stroke="white" stroke-width="2" opacity="0.5" class="graphicObject31"></path><path d="M 1320 543.9166119500984 L1320,557.0485883125407 C 1420 557.0485883125407 1730 541.0781352593564 1830 541.0781352593564 L1830,527.9461588969141 C 1730 527.9461588969141 1420 543.9166119500984 1320 543.9166119500984 Z" transform="matrix(1 0 0 -1 200 1590.3184504267892)" fill="rgb(91.01421800947867, 85.0781990521327, 164.0260663507109)" stroke="white" stroke-width="2" opacity="0.5" class="graphicObject31"></path><path d="M 1320 563.0485883125413 L1320,603.1011162179902 C 1420 603.1011162179902 1730 581.1306631648058 1830 581.1306631648058 L1830,541.0781352593568 C 1730 541.0781352593568 1420 563.0485883125413 1320 563.0485883125413 Z" transform="matrix(1 0 0 -1 200 1590.3184504267892)" fill="rgb(83.45760926803581, 100.46129541864138, 169.15376513954712)" stroke="white" stroke-width="2" opacity="0.5" class="graphicObject31"></path><path d="M 1320 608.747866053841 L1320,616.8896913985552 C 1420 616.8896913985552 1730 1317.8437294812868 1830 1317.8437294812868 L1830,1309.7019041365727 C 1730 1309.7019041365727 1420 608.747866053841 1320 608.747866053841 Z" transform="matrix(1 0 0 -1 200 1590.3184504267892)" fill="rgb(92.41495523959979, 82.22669826224329, 163.07556608741442)" stroke="white" stroke-width="2" opacity="0.5" class="graphicObject31"></path><path d="M 1320 603.1011162179907 L1320,608.7478660538409 C 1420 608.7478660538409 1730 1191.2921864740645 1830 1191.2921864740645 L1830,1185.6454366382143 C 1730 1185.6454366382143 1420 603.1011162179907 1320 603.1011162179907 Z" transform="matrix(1 0 0 -1 200 1590.3184504267892)" fill="rgb(93.11532385466035, 80.80094786729859, 162.6003159557662)" stroke="white" stroke-width="2" opacity="0.5" class="graphicObject31"></path><path d="M 1320 622.8896913985559 L1320,688.5495732107673 C 1420 688.5495732107673 1730 646.7905449770183 1830 646.7905449770183 L1830,581.1306631648068 C 1730 581.1306631648068 1420 622.8896913985559 1320 622.8896913985559 Z" transform="matrix(1 0 0 -1 200 1590.3184504267892)" fill="rgb(76.26961558715114, 115.09399684044234, 174.03133228014744)" stroke="white" stroke-width="2" opacity="0.5" class="graphicObject31"></path><path d="M 1320 694.5495732107688 L1320,780.4326986211414 C 1420 780.4326986211414 1730 732.6736703873923 1830 732.6736703873923 L1830,646.7905449770199 C 1730 646.7905449770199 1420 694.5495732107688 1320 694.5495732107688 Z" transform="matrix(1 0 0 -1 200 1590.3184504267892)" fill="rgb(70.59294365455503, 126.65007898894153, 177.88335966298052)" stroke="white" stroke-width="2" opacity="0.5" class="graphicObject31"></path><path d="M 1320 780.4326986211423 L1320,786.4734077478657 C 1420 786.4734077478657 1730 1323.8844386080104 1830 1323.8844386080104 L1830,1317.843729481287 C 1730 1317.843729481287 1420 780.4326986211423 1320 780.4326986211423 Z" transform="matrix(1 0 0 -1 200 1590.3184504267892)" fill="rgb(93.00473933649289, 81.0260663507109, 162.67535545023696)" stroke="white" stroke-width="2" opacity="0.5" class="graphicObject31"></path><path d="M 1320 792.4734077478662 L1320,821.3637557452392 C 1420 821.3637557452392 1730 761.5640183847665 1830 761.5640183847665 L1830,732.6736703873935 C 1730 732.6736703873935 1420 792.4734077478662 1320 792.4734077478662 Z" transform="matrix(1 0 0 -1 200 1590.3184504267892)" fill="rgb(86.5908372827804, 94.08293838862559, 167.02764612954186)" stroke="white" stroke-width="2" opacity="0.5" class="graphicObject31"></path><path d="M 1320 827.3637557452396 L1320,831.9599474720944 C 1420 831.9599474720944 1730 766.1602101116217 1830 766.1602101116217 L1830,761.5640183847669 C 1730 761.5640183847669 1420 827.3637557452396 1320 827.3637557452396 Z" transform="matrix(1 0 0 -1 200 1590.3184504267892)" fill="rgb(93.4102159031069, 80.20063191153238, 162.40021063717745)" stroke="white" stroke-width="2" opacity="0.5" class="graphicObject31"></path><path d="M 1320 831.9599474720945 L1320,844.4353250164147 C 1420 844.4353250164147 1730 1020.7485226526594 1830 1020.7485226526594 L1830,1008.2731451083392 C 1730 1008.2731451083392 1420 831.9599474720945 1320 831.9599474720945 Z" transform="matrix(1 0 0 -1 200 1590.3184504267892)" fill="rgb(91.19852553975777, 84.70300157977883, 163.90100052659292)" stroke="white" stroke-width="2" opacity="0.5" class="graphicObject31"></path><path d="M 1320 850.4353250164153 L1320,899.6802363755739 C 1420 899.6802363755739 1730 815.4051214707808 1830 815.4051214707808 L1830,766.1602101116223 C 1730 766.1602101116223 1420 850.4353250164153 1320 850.4353250164153 Z" transform="matrix(1 0 0 -1 200 1590.3184504267892)" fill="rgb(80.87730384412849, 105.71406003159558, 170.90468667719853)" stroke="white" stroke-width="2" opacity="0.5" class="graphicObject31"></path><path d="M 1320 899.6802363755747 L1320,934.4799737360468 C 1420 934.4799737360468 1730 1055.548260013132 1830 1055.548260013132 L1830,1020.74852265266 C 1730 1020.74852265266 1420 899.6802363755747 1320 899.6802363755747 Z" transform="matrix(1 0 0 -1 200 1590.3184504267892)" fill="rgb(84.93206951026856, 97.45971563981043, 168.1532385466035)" stroke="white" stroke-width="2" opacity="0.5" class="graphicObject31"></path><path d="M 1320 940.4799737360484 L1320,1083.6185160866694 C 1420 1083.6185160866694 1730 958.5436638214036 1830 958.5436638214036 L1830,815.4051214707827 C 1730 815.4051214707827 1420 940.4799737360484 1320 940.4799737360484 Z" transform="matrix(1 0 0 -1 200 1590.3184504267892)" fill="rgb(81.98815165876778, 157.72748815165875, 176.08056872037915)" stroke="white" stroke-width="2" opacity="0.5" class="graphicObject31"></path><path d="M 1320 1089.618516086671 L1320,1106.6900853578459 C 1420 1106.6900853578459 1730 975.6152330925802 1830 975.6152330925802 L1830,958.5436638214052 C 1730 958.5436638214052 1420 1089.618516086671 1320 1089.618516086671 Z" transform="matrix(1 0 0 -1 200 1590.3184504267892)" fill="rgb(89.9083728278041, 87.32938388625591, 164.77646129541864)" stroke="white" stroke-width="2" opacity="0.5" class="graphicObject31"></path><path d="M 1320 1112.6900853578463 L1320,1131.0748522652655 C 1420 1131.0748522652655 1730 993.9999999999998 1830 993.9999999999998 L1830,975.6152330925805 C 1730 975.6152330925805 1420 1112.6900853578463 1320 1112.6900853578463 Z" transform="matrix(1 0 0 -1 200 1590.3184504267892)" fill="rgb(89.53975776724592, 88.07977883096365, 165.02659294365455)" stroke="white" stroke-width="2" opacity="0.5" class="graphicObject31"></path><path d="M 1320 1137.0748522652664 L1320,1205.3611293499664 C 1420 1205.3611293499664 1730 1259.578463558765 1830 1259.578463558765 L1830,1191.2921864740651 C 1730 1191.2921864740651 1420 1137.0748522652664 1320 1137.0748522652664 Z" transform="matrix(1 0 0 -1 200 1590.3184504267892)" fill="rgb(75.53238546603475, 116.59478672985782, 174.53159557661928)" stroke="white" stroke-width="2" opacity="0.5" class="graphicObject31"></path><path d="M 1320 1211.3611293499675 L1320,1276.7583716349302 C 1420 1276.7583716349302 1730 1120.9455022980953 1830 1120.9455022980953 L1830,1055.5482600131327 C 1730 1055.5482600131327 1420 1211.3611293499675 1320 1211.3611293499675 Z" transform="matrix(1 0 0 -1 200 1590.3184504267892)" fill="rgb(76.34333859926278, 114.94391785150079, 173.98130595050026)" stroke="white" stroke-width="2" opacity="0.5" class="graphicObject31"></path><path d="M 1320 1276.7583716349307 L1320,1282.2738017071565 C 1420 1282.2738017071565 1730 1265.0938936309915 1830 1265.0938936309915 L1830,1259.5784635587656 C 1730 1259.5784635587656 1420 1276.7583716349307 1320 1276.7583716349307 Z" transform="matrix(1 0 0 -1 200 1590.3184504267892)" fill="rgb(93.15218536071617, 80.7259083728278, 162.5753027909426)" stroke="white" stroke-width="2" opacity="0.5" class="graphicObject31"></path><path d="M 1320 1288.273801707157 L1320,1307.9717662508203 C 1420 1307.9717662508203 1730 1140.6434668417596 1830 1140.6434668417596 L1830,1120.9455022980962 C 1730 1120.9455022980962 1420 1288.273801707157 1320 1288.273801707157 Z" transform="matrix(1 0 0 -1 200 1590.3184504267892)" fill="rgb(89.17114270668773, 88.83017377567141, 165.27672459189046)" stroke="white" stroke-width="2" opacity="0.5" class="graphicObject31"></path><path d="M 1320 1313.9717662508208 L1320,1330.5180564674981 C 1420 1330.5180564674981 1730 1157.1897570584372 1830 1157.1897570584372 L1830,1140.6434668417598 C 1730 1140.6434668417598 1420 1313.9717662508208 1320 1313.9717662508208 Z" transform="matrix(1 0 0 -1 200 1590.3184504267892)" fill="rgb(90.05581885202739, 87.02922590837282, 164.67640863612428)" stroke="white" stroke-width="2" opacity="0.5" class="graphicObject31"></path><path d="M 1320 1330.5180564674981 L1320,1336.2961260669726 C 1420 1336.2961260669726 1730 1270.8719632304662 1830 1270.8719632304662 L1830,1265.0938936309917 C 1730 1265.0938936309917 1420 1330.5180564674981 1320 1330.5180564674981 Z" transform="matrix(1 0 0 -1 200 1590.3184504267892)" fill="rgb(93.07846234860453, 80.87598736176935, 162.62532912058978)" stroke="white" stroke-width="2" opacity="0.5" class="graphicObject31"></path><path d="M 1320 1342.296126066973 L1320,1364.620485883125 C 1420 1364.620485883125 1730 1293.1963230466183 1830 1293.1963230466183 L1830,1270.8719632304665 C 1730 1270.8719632304665 1420 1342.296126066973 1320 1342.296126066973 Z" transform="matrix(1 0 0 -1 200 1590.3184504267892)" fill="rgb(88.43391258557135, 90.33096366508688, 165.77698788836227)" stroke="white" stroke-width="2" opacity="0.5" class="graphicObject31"></path><path d="M 1320 1370.6204858831254 L1320,1384.6717005909386 C 1420 1384.6717005909386 1730 1171.2409717662508 1830 1171.2409717662508 L1830,1157.1897570584376 C 1730 1157.1897570584376 1420 1370.6204858831254 1320 1370.6204858831254 Z" transform="matrix(1 0 0 -1 200 1590.3184504267892)" fill="rgb(90.75618746708794, 85.60347551342812, 164.20115850447604)" stroke="white" stroke-width="2" opacity="0.5" class="graphicObject31"></path><path d="M 1320 1384.6717005909388 L1320,1390.318450426789 C 1420 1390.318450426789 1730 1298.8430728824687 1830 1298.8430728824687 L1830,1293.1963230466185 C 1730 1293.1963230466185 1420 1384.6717005909388 1320 1384.6717005909388 Z" transform="matrix(1 0 0 -1 200 1590.3184504267892)" fill="rgb(93.11532385466035, 80.80094786729859, 162.6003159557662)" stroke="white" stroke-width="2" opacity="0.5" class="graphicObject31"></path></g><g class="graphicObject30"><g class="graphicObject29"><g class="graphicObject28"><rect width="100" height="870.7813525935653" transform="matrix(1 0 0 -0.9999999999999999 200 1590.3184504267892) translate(0,0) rotate(0)" fill="rgb(218.1579778830964, 75.36176935229074, 74.7045813586098)" stroke="white" stroke-width="2" opacity="1" class="graphicObject26"></rect><text transform="matrix(1 0 0 -0.9999999999999999 200 1590.3184504267892) translate(110,428.39067629678266) rotate(0) scale(1,-1)" fill="white" font-size="20" font-family="sans-serif" text-anchor="start" font-weight="normal" class="graphicObject27"><tspan x="0" dy="0">Energy</tspan></text></g><g class="graphicObject28"><rect width="100" height="441.1030860144452" transform="matrix(1 0 0 -0.9999999999999999 200 713.537097833224) translate(0,0) rotate(0)" fill="rgb(234.72037914691944, 244.98525539757767, 166.95576619273302)" stroke="white" stroke-width="2" opacity="1" class="graphicObject26"></rect><text transform="matrix(1 0 0 -0.9999999999999999 200 713.537097833224) translate(110,213.5515430072226) rotate(0) scale(1,-1)" fill="white" font-size="20" font-family="sans-serif" text-anchor="start" font-weight="normal" class="graphicObject27"><tspan x="0" dy="0">Non-Energy</tspan></text></g></g><g class="graphicObject29"><g class="graphicObject28"><rect width="100" height="187.7872619829284" transform="matrix(1 0 0 -1 810 1611.3184504267892) translate(0,0) rotate(0)" fill="rgb(99.44470774091627, 181.45050026329645, 170.7093206951027)" stroke="white" stroke-width="2" opacity="1" class="graphicObject26"></rect><text transform="matrix(1 0 0 -1 810 1611.3184504267892) translate(110,86.8936309914642) rotate(0) scale(1,-1)" fill="white" font-size="20" font-family="sans-serif" text-anchor="start" font-weight="normal" class="graphicObject27"><tspan x="0" dy="0">Transportation</tspan></text></g><g class="graphicObject28"><rect width="100" height="326.854891661195" transform="matrix(1 0 0 -0.9999999999999999 810 1417.5311884438609) translate(0,0) rotate(0)" fill="rgb(182.84412848867822, 226.5376513954713, 161.74828857293312)" stroke="white" stroke-width="2" opacity="1" class="graphicObject26"></rect><text transform="matrix(1 0 0 -0.9999999999999999 810 1417.5311884438609) translate(110,156.4274458305975) rotate(0) scale(1,-1)" fill="white" font-size="20" font-family="sans-serif" text-anchor="start" font-weight="normal" class="graphicObject27"><tspan x="0" dy="0">Electricity &amp; Heat</tspan></text></g><g class="graphicObject28"><rect width="100" height="113.06631648063032" transform="matrix(1 0 0 -1 810 1084.6762967826658) translate(0,0) rotate(0)" fill="rgb(70.23064770932069, 141.74934175882044, 179.69826224328594)" stroke="white" stroke-width="2" opacity="1" class="graphicObject26"></rect><text transform="matrix(1 0 0 -1 810 1084.6762967826658) translate(110,49.53315824031516) rotate(0) scale(1,-1)" fill="white" font-size="20" font-family="sans-serif" text-anchor="start" font-weight="normal" class="graphicObject27"><tspan x="0" dy="0">Other Fuel Combustion</tspan></text></g><g class="graphicObject28"><rect width="100" height="189.62573867367036" transform="matrix(1.0000000000000002 0 0 -1 810 965.6099803020355) translate(0,0) rotate(0)" fill="rgb(100.16350710900473, 182.42733017377566, 170.48815165876778)" stroke="white" stroke-width="2" opacity="1" class="graphicObject26"></rect><text transform="matrix(1.0000000000000002 0 0 -1 810 965.6099803020355) translate(110,87.81286933683518) rotate(0) scale(1,-1)" fill="white" font-size="20" font-family="sans-serif" text-anchor="start" font-weight="normal" class="graphicObject27"><tspan x="0" dy="0">Industry</tspan></text></g><g class="graphicObject28"><rect width="100" height="53.44714379514117" transform="matrix(1 0 0 -1 810 769.9842416283652) translate(0,0) rotate(0)" fill="rgb(79.69773565034228, 108.11532385466035, 171.70510795155343)" stroke="white" stroke-width="2" opacity="1" class="graphicObject26"></rect><text transform="matrix(1 0 0 -1 810 769.9842416283652) translate(110,19.723571897570586) rotate(0) scale(1,-1)" fill="white" font-size="20" font-family="sans-serif" text-anchor="start" font-weight="normal" class="graphicObject27"><tspan x="0" dy="0">Fugitive Emissions</tspan></text></g><g class="graphicObject28"><rect width="100" height="57.64937623112277" transform="matrix(1 0 0 -1 810 710.537097833224) translate(0,0) rotate(0)" fill="rgb(78.51816745655609, 110.51658767772511, 172.50552922590836)" stroke="white" stroke-width="2" opacity="1" class="graphicObject26"></rect><text transform="matrix(1 0 0 -1 810 710.537097833224) translate(110,21.824688115561386) rotate(0) scale(1,-1)" fill="white" font-size="20" font-family="sans-serif" text-anchor="start" font-weight="normal" class="graphicObject27"><tspan x="0" dy="0">Industrial Processes</tspan></text></g><g class="graphicObject28"><rect width="100" height="160.2101116217991" transform="matrix(1 0 0 -1 810 646.8877216021012) translate(0,0) rotate(0)" fill="rgb(88.66271721958924, 166.79805160610846, 174.0268562401264)" stroke="white" stroke-width="2" opacity="1" class="graphicObject26"></rect><text transform="matrix(1 0 0 -1 810 646.8877216021012) translate(110,73.10505581089954) rotate(0) scale(1,-1)" fill="white" font-size="20" font-family="sans-serif" text-anchor="start" font-weight="normal" class="graphicObject27"><tspan x="0" dy="0">Land Use Change</tspan></text></g><g class="graphicObject28"><rect width="100" height="181.22127380170716" transform="matrix(1 0 0 -0.9999999999999999 810 480.6776099803021) translate(0,0) rotate(0)" fill="rgb(96.87756714060032, 177.96182201158507, 171.49921011058453)" stroke="white" stroke-width="2" opacity="1" class="graphicObject26"></rect><text transform="matrix(1 0 0 -0.9999999999999999 810 480.6776099803021) translate(110,83.61063690085358) rotate(0) scale(1,-1)" fill="white" font-size="20" font-family="sans-serif" text-anchor="start" font-weight="normal" class="graphicObject27"><tspan x="0" dy="0">Agriculture</tspan></text></g><g class="graphicObject28"><rect width="100" height="42.022324359816146" transform="matrix(1 0 0 -0.9999999999999999 810 293.45633617859494) translate(0,0) rotate(0)" fill="rgb(82.90468667719853, 101.58688783570301, 169.52896261190102)" stroke="white" stroke-width="2" opacity="1" class="graphicObject26"></rect><text transform="matrix(1 0 0 -0.9999999999999999 810 293.45633617859494) translate(110,14.011162179908073) rotate(0) scale(1,-1)" fill="white" font-size="20" font-family="sans-serif" text-anchor="start" font-weight="normal" class="graphicObject27"><tspan x="0" dy="0">Waste</tspan></text></g></g><g class="graphicObject29"><g class="graphicObject28"><rect width="100" height="137.88575180564675" transform="matrix(1 0 0 -0.9999999999999999 1420 1662.752462245568) translate(0,0) rotate(0)" fill="rgb(79.93443917851499, 154.93654555028962, 176.71248025276464)" stroke="white" stroke-width="2" opacity="1" class="graphicObject26"></rect><text transform="matrix(1 0 0 -0.9999999999999999 1420 1662.752462245568) translate(110,61.942875902823374) rotate(0) scale(1,-1)" fill="white" font-size="20" font-family="sans-serif" text-anchor="start" font-weight="normal" class="graphicObject27"><tspan x="0" dy="0">Road</tspan></text></g><g class="graphicObject28"><rect width="100" height="22.324359816152327" transform="matrix(1.0000000000000002 0 0 -0.9999999999999999 1420 1518.8667104399212) translate(0,0) rotate(0)" fill="rgb(88.43391258557135, 90.33096366508688, 165.77698788836227)" stroke="white" stroke-width="2" opacity="1" class="graphicObject26"></rect><text transform="matrix(1.0000000000000002 0 0 -0.9999999999999999 1420 1518.8667104399212) translate(110,4.162179908076164) rotate(0) scale(1,-1)" fill="white" font-size="20" font-family="sans-serif" text-anchor="start" font-weight="normal" class="graphicObject27"><tspan x="0" dy="0">Air</tspan></text></g><g class="graphicObject28"><rect width="100" height="32.829940906106366" transform="matrix(1 0 0 -0.9999999999999998 1420 1490.542350623769) translate(0,0) rotate(0)" fill="rgb(85.48499210110586, 96.33412322274881, 167.7780410742496)" stroke="white" stroke-width="2" opacity="1" class="graphicObject26"></rect><text transform="matrix(1 0 0 -0.9999999999999998 1420 1490.542350623769) translate(110,9.414970453053183) rotate(0) scale(1,-1)" fill="white" font-size="20" font-family="sans-serif" text-anchor="start" font-weight="normal" class="graphicObject27"><tspan x="0" dy="0">Rail, Ship, &amp; Other Transport</tspan></text></g><g class="graphicObject28"><rect width="100" height="133.94615889691397" transform="matrix(1 0 0 -0.9999999999999999 1420 1451.7124097176627) translate(0,0) rotate(0)" fill="rgb(78.39415481832543, 152.84333859926275, 177.18641390205372)" stroke="white" stroke-width="2" opacity="1" class="graphicObject26"></rect><text transform="matrix(1 0 0 -0.9999999999999999 1420 1451.7124097176627) translate(110,59.973079448456986) rotate(0) scale(1,-1)" fill="white" font-size="20" font-family="sans-serif" text-anchor="start" font-weight="normal" class="graphicObject27"><tspan x="0" dy="0">Residential Buildings</tspan></text></g><g class="graphicObject28"><rect width="100" height="82.73145108338804" transform="matrix(1 0 0 -0.9999999999999998 1420 1311.7662508207486) translate(0,0) rotate(0)" fill="rgb(71.47761979989468, 124.84913112164297, 177.28304370721432)" stroke="white" stroke-width="2" opacity="1" class="graphicObject26"></rect><text transform="matrix(1 0 0 -0.9999999999999998 1420 1311.7662508207486) translate(110,34.36572554169402) rotate(0) scale(1,-1)" fill="white" font-size="20" font-family="sans-serif" text-anchor="start" font-weight="normal" class="graphicObject27"><tspan x="0" dy="0">Commercial Buildings</tspan></text></g><g class="graphicObject28"><rect width="100" height="49.90151017728167" transform="matrix(1 0 0 -0.9999999999999999 1420 1223.0347997373606) translate(0,0) rotate(0)" fill="rgb(80.69299631384939, 106.08925750394945, 171.02975250131647)" stroke="white" stroke-width="2" opacity="1" class="graphicObject26"></rect><text transform="matrix(1 0 0 -0.9999999999999999 1420 1223.0347997373606) translate(110,17.950755088640836) rotate(0) scale(1,-1)" fill="white" font-size="20" font-family="sans-serif" text-anchor="start" font-weight="normal" class="graphicObject27"><tspan x="0" dy="0">Unallocated Fuel Combustion</tspan></text></g><g class="graphicObject28"><rect width="100" height="52.52790544977019" transform="matrix(1.0000000000000002 0 0 -0.9999999999999999 1420 1167.133289560079) translate(0,0) rotate(0)" fill="rgb(79.95576619273302, 107.59004739336493, 171.5300157977883)" stroke="white" stroke-width="2" opacity="1" class="graphicObject26"></rect><text transform="matrix(1.0000000000000002 0 0 -0.9999999999999999 1420 1167.133289560079) translate(110,19.263952724885094) rotate(0) scale(1,-1)" fill="white" font-size="20" font-family="sans-serif" text-anchor="start" font-weight="normal" class="graphicObject27"><tspan x="0" dy="0">Iron &amp; Steel</tspan></text></g><g class="graphicObject28"><rect width="100" height="15.758371634931056" transform="matrix(1 0 0 -0.9999999999999999 1420 1108.605384110309) translate(0,0) rotate(0)" fill="rgb(90.2769878883623, 86.57898894154818, 164.52632964718273)" stroke="white" stroke-width="2" opacity="1" class="graphicObject26"></rect><text transform="matrix(1 0 0 -0.9999999999999999 1420 1108.605384110309) translate(110,0.8791858174655278) rotate(0) scale(1,-1)" fill="white" font-size="20" font-family="sans-serif" text-anchor="start" font-weight="normal" class="graphicObject27"><tspan x="0" dy="0">Aluminum/Non-Ferrous Metals</tspan></text></g><g class="graphicObject28"><rect width="100" height="13.131976362442547" transform="matrix(1 0 0 -0.9999999999999999 1420 1086.413000656599) translate(0,0) rotate(0)" fill="rgb(91.01421800947867, 85.0781990521327, 164.0260663507109)" stroke="white" stroke-width="2" opacity="1" class="graphicObject26"></rect><text transform="matrix(1 0 0 -0.9999999999999999 1420 1086.413000656599) translate(110,-0.4340118187787265) rotate(0) scale(1,-1)" fill="white" font-size="20" font-family="sans-serif" text-anchor="start" font-weight="normal" class="graphicObject27"><tspan x="0" dy="0">Machinery</tspan></text></g><g class="graphicObject28"><rect width="100" height="14.445173998686801" transform="matrix(1.0000000000000002 0 0 -0.9999999999999999 1420 1067.2810242941564) translate(0,0) rotate(0)" fill="rgb(90.64560294892048, 85.82859399684045, 164.27619799894683)" stroke="white" stroke-width="2" opacity="1" class="graphicObject26"></rect><text transform="matrix(1.0000000000000002 0 0 -0.9999999999999999 1420 1067.2810242941564) translate(110,0.22258699934340065) rotate(0) scale(1,-1)" fill="white" font-size="20" font-family="sans-serif" text-anchor="start" font-weight="normal" class="graphicObject27"><tspan x="0" dy="0">Pulp, Paper &amp; Printing</tspan></text></g><g class="graphicObject28"><rect width="100" height="13.131976362442547" transform="matrix(1 0 0 -0.9999999999999999 1420 1046.401838476691) translate(0,0) rotate(0)" fill="rgb(91.01421800947867, 85.0781990521327, 164.0260663507109)" stroke="white" stroke-width="2" opacity="1" class="graphicObject26"></rect><text transform="matrix(1 0 0 -0.9999999999999999 1420 1046.401838476691) translate(110,-0.4340118187787265) rotate(0) scale(1,-1)" fill="white" font-size="20" font-family="sans-serif" text-anchor="start" font-weight="normal" class="graphicObject27"><tspan x="0" dy="0">Food &amp; Tobacco</tspan></text></g><g class="graphicObject28"><rect width="100" height="53.84110308601444" transform="matrix(1 0 0 -0.9999999999999999 1420 1027.2698621142483) translate(0,0) rotate(0)" fill="rgb(79.58715113217482, 108.34044233807266, 171.78014744602422)" stroke="white" stroke-width="2" opacity="1" class="graphicObject26"></rect><text transform="matrix(1 0 0 -0.9999999999999999 1420 1027.2698621142483) translate(110,19.92055154300722) rotate(0) scale(1,-1)" fill="white" font-size="20" font-family="sans-serif" text-anchor="start" font-weight="normal" class="graphicObject27"><tspan x="0" dy="0">Chemicals</tspan></text></g><g class="graphicObject28"><rect width="100" height="65.65988181221273" transform="matrix(1 0 0 -0.9999999999999998 1420 967.4287590282339) translate(0,0) rotate(0)" fill="rgb(76.26961558715114, 115.09399684044234, 174.03133228014744)" stroke="white" stroke-width="2" opacity="1" class="graphicObject26"></rect><text transform="matrix(1 0 0 -0.9999999999999998 1420 967.4287590282339) translate(110,25.829940906106366) rotate(0) scale(1,-1)" fill="white" font-size="20" font-family="sans-serif" text-anchor="start" font-weight="normal" class="graphicObject27"><tspan x="0" dy="0">Cement</tspan></text></g><g class="graphicObject28"><rect width="100" height="91.92383453709782" transform="matrix(1 0 0 -0.9999999999999999 1420 895.7688772160212) translate(0,0) rotate(0)" fill="rgb(68.89731437598736, 130.10189573459715, 179.03396524486573)" stroke="white" stroke-width="2" opacity="1" class="graphicObject26"></rect><text transform="matrix(1 0 0 -0.9999999999999999 1420 895.7688772160212) translate(110,38.96191726854891) rotate(0) scale(1,-1)" fill="white" font-size="20" font-family="sans-serif" text-anchor="start" font-weight="normal" class="graphicObject27"><tspan x="0" dy="0">Other Industry</tspan></text></g><g class="graphicObject28"><rect width="100" height="28.890347997373603" transform="matrix(1.0000000000000002 0 0 -0.9999999999999999 1420 797.8450426789234) translate(0,0) rotate(0)" fill="rgb(86.5908372827804, 94.08293838862559, 167.02764612954186)" stroke="white" stroke-width="2" opacity="1" class="graphicObject26"></rect><text transform="matrix(1.0000000000000002 0 0 -0.9999999999999999 1420 797.8450426789234) translate(110,7.445173998686801) rotate(0) scale(1,-1)" fill="white" font-size="20" font-family="sans-serif" text-anchor="start" font-weight="normal" class="graphicObject27"><tspan x="0" dy="0">T &amp; D Losses</tspan></text></g><g class="graphicObject28"><rect width="100" height="17.07156927117531" transform="matrix(1 0 0 -0.9999999999999999 1420 762.9546946815498) translate(0,0) rotate(0)" fill="rgb(89.9083728278041, 87.32938388625591, 164.77646129541864)" stroke="white" stroke-width="2" opacity="1" class="graphicObject26"></rect><text transform="matrix(1 0 0 -0.9999999999999999 1420 762.9546946815498) translate(110,1.535784635587655) rotate(0) scale(1,-1)" fill="white" font-size="20" font-family="sans-serif" text-anchor="start" font-weight="normal" class="graphicObject27"><tspan x="0" dy="0">Coal Mining</tspan></text></g><g class="graphicObject28"><rect width="100" height="84.04464871963229" transform="matrix(1 0 0 -0.9999999999999998 1420 739.8831254103744) translate(0,0) rotate(0)" fill="rgb(71.10900473933648, 125.5995260663507, 177.53317535545023)" stroke="white" stroke-width="2" opacity="1" class="graphicObject26"></rect><text transform="matrix(1 0 0 -0.9999999999999998 1420 739.8831254103744) translate(110,35.022324359816146) rotate(0) scale(1,-1)" fill="white" font-size="20" font-family="sans-serif" text-anchor="start" font-weight="normal" class="graphicObject27"><tspan x="0" dy="0">Oil/Gas Extraction, Refining, &amp; Processing</tspan></text></g><g class="graphicObject28"><rect width="100" height="143.13854235062377" transform="matrix(1 0 0 -0.9999999999999999 1420 649.8384766907421) translate(0,0) rotate(0)" fill="rgb(81.98815165876778, 157.72748815165875, 176.08056872037915)" stroke="white" stroke-width="2" opacity="1" class="graphicObject26"></rect><text transform="matrix(1 0 0 -0.9999999999999999 1420 649.8384766907421) translate(110,64.56927117531188) rotate(0) scale(1,-1)" fill="white" font-size="20" font-family="sans-serif" text-anchor="start" font-weight="normal" class="graphicObject27"><tspan x="0" dy="0">Deforestation</tspan></text></g><g class="graphicObject28"><rect width="100" height="17.07156927117531" transform="matrix(1 0 0 -0.9999999999999999 1420 500.6999343401185) translate(0,0) rotate(0)" fill="rgb(89.9083728278041, 87.32938388625591, 164.77646129541864)" stroke="white" stroke-width="2" opacity="1" class="graphicObject26"></rect><text transform="matrix(1 0 0 -0.9999999999999999 1420 500.6999343401185) translate(110,1.535784635587655) rotate(0) scale(1,-1)" fill="white" font-size="20" font-family="sans-serif" text-anchor="start" font-weight="normal" class="graphicObject27"><tspan x="0" dy="0">Harvest/Management</tspan></text></g><g class="graphicObject28"><rect width="100" height="18.384766907419564" transform="matrix(1 0 0 -0.9999999999999999 1420 477.62836506894314) translate(0,0) rotate(0)" fill="rgb(89.53975776724592, 88.07977883096365, 165.02659294365455)" stroke="white" stroke-width="2" opacity="1" class="graphicObject26"></rect><text transform="matrix(1 0 0 -0.9999999999999999 1420 477.62836506894314) translate(110,2.192383453709782) rotate(0) scale(1,-1)" fill="white" font-size="20" font-family="sans-serif" text-anchor="start" font-weight="normal" class="graphicObject27"><tspan x="0" dy="0">Agricultural Energy Use</tspan></text></g><g class="graphicObject28"><rect width="100" height="68.28627708470124" transform="matrix(1 0 0 -0.9999999999999999 1420 453.24359816152355) translate(0,0) rotate(0)" fill="rgb(75.53238546603475, 116.59478672985782, 174.53159557661928)" stroke="white" stroke-width="2" opacity="1" class="graphicObject26"></rect><text transform="matrix(1 0 0 -0.9999999999999999 1420 453.24359816152355) translate(110,27.14313854235062) rotate(0) scale(1,-1)" fill="white" font-size="20" font-family="sans-serif" text-anchor="start" font-weight="normal" class="graphicObject27"><tspan x="0" dy="0">Agriculture Soils</tspan></text></g><g class="graphicObject28"><rect width="100" height="70.91267235718976" transform="matrix(1 0 0 -0.9999999999999999 1420 378.9573210768224) translate(0,0) rotate(0)" fill="rgb(74.79515534491838, 118.0955766192733, 175.0318588730911)" stroke="white" stroke-width="2" opacity="1" class="graphicObject26"></rect><text transform="matrix(1 0 0 -0.9999999999999999 1420 378.9573210768224) translate(110,28.45633617859488) rotate(0) scale(1,-1)" fill="white" font-size="20" font-family="sans-serif" text-anchor="start" font-weight="normal" class="graphicObject27"><tspan x="0" dy="0">Livestock &amp; Manure</tspan></text></g><g class="graphicObject28"><rect width="100" height="19.697964543663822" transform="matrix(1.0000000000000002 0 0 -0.9999999999999999 1420 302.0446487196325) translate(0,0) rotate(0)" fill="rgb(89.17114270668773, 88.83017377567141, 165.27672459189046)" stroke="white" stroke-width="2" opacity="1" class="graphicObject26"></rect><text transform="matrix(1.0000000000000002 0 0 -0.9999999999999999 1420 302.0446487196325) translate(110,2.848982271831911) rotate(0) scale(1,-1)" fill="white" font-size="20" font-family="sans-serif" text-anchor="start" font-weight="normal" class="graphicObject27"><tspan x="0" dy="0">Rice Cultivation</tspan></text></g><g class="graphicObject28"><rect width="100" height="22.324359816152327" transform="matrix(1.0000000000000002 0 0 -0.9999999999999999 1420 276.3466841759687) translate(0,0) rotate(0)" fill="rgb(88.43391258557135, 90.33096366508688, 165.77698788836227)" stroke="white" stroke-width="2" opacity="1" class="graphicObject26"></rect><text transform="matrix(1.0000000000000002 0 0 -0.9999999999999999 1420 276.3466841759687) translate(110,4.162179908076164) rotate(0) scale(1,-1)" fill="white" font-size="20" font-family="sans-serif" text-anchor="start" font-weight="normal" class="graphicObject27"><tspan x="0" dy="0">Other Agriculture</tspan></text></g><g class="graphicObject28"><rect width="100" height="22.324359816152327" transform="matrix(1.0000000000000002 0 0 -0.9999999999999999 1420 248.02232435981637) translate(0,0) rotate(0)" fill="rgb(88.43391258557135, 90.33096366508688, 165.77698788836227)" stroke="white" stroke-width="2" opacity="1" class="graphicObject26"></rect><text transform="matrix(1.0000000000000002 0 0 -0.9999999999999999 1420 248.02232435981637) translate(110,4.162179908076164) rotate(0) scale(1,-1)" fill="white" font-size="20" font-family="sans-serif" text-anchor="start" font-weight="normal" class="graphicObject27"><tspan x="0" dy="0">Landfills</tspan></text></g><g class="graphicObject28"><rect width="100" height="19.697964543663822" transform="matrix(1.0000000000000002 0 0 -0.9999999999999999 1420 219.69796454366406) translate(0,0) rotate(0)" fill="rgb(89.17114270668773, 88.83017377567141, 165.27672459189046)" stroke="white" stroke-width="2" opacity="1" class="graphicObject26"></rect><text transform="matrix(1.0000000000000002 0 0 -0.9999999999999999 1420 219.69796454366406) translate(110,2.848982271831911) rotate(0) scale(1,-1)" fill="white" font-size="20" font-family="sans-serif" text-anchor="start" font-weight="normal" class="graphicObject27"><tspan x="0" dy="0">Wastewater, Other Waste</tspan></text></g></g><g class="graphicObject29"><g class="graphicObject28"><rect width="100" height="1000" transform="matrix(1 0 0 -1 2030 1596.3184504267892) translate(0,0) rotate(0)" fill="#9e0142" stroke="white" stroke-width="2" opacity="1" class="graphicObject26"></rect><text transform="matrix(1 0 0 -1 2030 1596.3184504267892) translate(110,493) rotate(0) scale(1,-1)" fill="white" font-size="20" font-family="sans-serif" text-anchor="start" font-weight="normal" class="graphicObject27"><tspan x="0" dy="0">CO2</tspan></text></g><g class="graphicObject28"><rect width="100" height="171.2409717662508" transform="matrix(1 0 0 -1 2030 590.3184504267892) translate(0,0) rotate(0)" fill="rgb(92.97551342812005, 172.65903106898367, 172.6998420221169)" stroke="white" stroke-width="2" opacity="1" class="graphicObject26"></rect><text transform="matrix(1 0 0 -1 2030 590.3184504267892) translate(110,78.6204858831254) rotate(0) scale(1,-1)" fill="white" font-size="20" font-family="sans-serif" text-anchor="start" font-weight="normal" class="graphicObject27"><tspan x="0" dy="0">CH4</tspan></text></g><g class="graphicObject28"><rect width="100" height="121.60210111621798" transform="matrix(1 0 0 -1 2030 413.0774786605384) translate(0,0) rotate(0)" fill="rgb(73.56793048973144, 146.2846234860453, 178.67140600315955)" stroke="white" stroke-width="2" opacity="1" class="graphicObject26"></rect><text transform="matrix(1 0 0 -1 2030 413.0774786605384) translate(110,53.80105055810899) rotate(0) scale(1,-1)" fill="white" font-size="20" font-family="sans-serif" text-anchor="start" font-weight="normal" class="graphicObject27"><tspan x="0" dy="0">N2O</tspan></text></g><g class="graphicObject28"><rect width="100" height="19.04136572554169" transform="matrix(1 0 0 -0.9999999999999999 2030 285.4753775443205) translate(0,0) rotate(0)" fill="rgb(89.35545023696682, 88.45497630331752, 165.1516587677725)" stroke="white" stroke-width="2" opacity="1" class="graphicObject26"></rect><text transform="matrix(1 0 0 -0.9999999999999999 2030 285.4753775443205) translate(110,2.5206828627708457) rotate(0) scale(1,-1)" fill="white" font-size="20" font-family="sans-serif" text-anchor="start" font-weight="normal" class="graphicObject27"><tspan x="0" dy="0">HFCs, PFCs, SF6</tspan></text></g></g></g></g><g class="graphicObject30"><g class="graphicObject29"><g class="graphicObject28"><rect width="100" height="870.7813525935653" transform="matrix(1 0 0 -0.9999999999999999 200 1590.3184504267892) translate(0,0) rotate(0)" fill="rgb(218.1579778830964, 75.36176935229074, 74.7045813586098)" stroke="white" stroke-width="2" opacity="1" class="graphicObject26"></rect><text transform="matrix(1 0 0 -0.9999999999999999 200 1590.3184504267892) translate(110,428.39067629678266) rotate(0) scale(1,-1)" fill="white" font-size="20" font-family="sans-serif" text-anchor="start" font-weight="normal" class="graphicObject27"><tspan x="0" dy="0">Energy</tspan></text></g><g class="graphicObject28"><rect width="100" height="441.1030860144452" transform="matrix(1 0 0 -0.9999999999999999 200 713.537097833224) translate(0,0) rotate(0)" fill="rgb(234.72037914691944, 244.98525539757767, 166.95576619273302)" stroke="white" stroke-width="2" opacity="1" class="graphicObject26"></rect><text transform="matrix(1 0 0 -0.9999999999999999 200 713.537097833224) translate(110,213.5515430072226) rotate(0) scale(1,-1)" fill="white" font-size="20" font-family="sans-serif" text-anchor="start" font-weight="normal" class="graphicObject27"><tspan x="0" dy="0">Non-Energy</tspan></text></g></g><g class="graphicObject29"><g class="graphicObject28"><rect width="100" height="187.7872619829284" transform="matrix(1 0 0 -1 810 1611.3184504267892) translate(0,0) rotate(0)" fill="rgb(99.44470774091627, 181.45050026329645, 170.7093206951027)" stroke="white" stroke-width="2" opacity="1" class="graphicObject26"></rect><text transform="matrix(1 0 0 -1 810 1611.3184504267892) translate(110,86.8936309914642) rotate(0) scale(1,-1)" fill="white" font-size="20" font-family="sans-serif" text-anchor="start" font-weight="normal" class="graphicObject27"><tspan x="0" dy="0">Transportation</tspan></text></g><g class="graphicObject28"><rect width="100" height="326.854891661195" transform="matrix(1 0 0 -0.9999999999999999 810 1417.5311884438609) translate(0,0) rotate(0)" fill="rgb(182.84412848867822, 226.5376513954713, 161.74828857293312)" stroke="white" stroke-width="2" opacity="1" class="graphicObject26"></rect><text transform="matrix(1 0 0 -0.9999999999999999 810 1417.5311884438609) translate(110,156.4274458305975) rotate(0) scale(1,-1)" fill="white" font-size="20" font-family="sans-serif" text-anchor="start" font-weight="normal" class="graphicObject27"><tspan x="0" dy="0">Electricity &amp; Heat</tspan></text></g><g class="graphicObject28"><rect width="100" height="113.06631648063032" transform="matrix(1 0 0 -1 810 1084.6762967826658) translate(0,0) rotate(0)" fill="rgb(70.23064770932069, 141.74934175882044, 179.69826224328594)" stroke="white" stroke-width="2" opacity="1" class="graphicObject26"></rect><text transform="matrix(1 0 0 -1 810 1084.6762967826658) translate(110,49.53315824031516) rotate(0) scale(1,-1)" fill="white" font-size="20" font-family="sans-serif" text-anchor="start" font-weight="normal" class="graphicObject27"><tspan x="0" dy="0">Other Fuel Combustion</tspan></text></g><g class="graphicObject28"><rect width="100" height="189.62573867367036" transform="matrix(1.0000000000000002 0 0 -1 810 965.6099803020355) translate(0,0) rotate(0)" fill="rgb(100.16350710900473, 182.42733017377566, 170.48815165876778)" stroke="white" stroke-width="2" opacity="1" class="graphicObject26"></rect><text transform="matrix(1.0000000000000002 0 0 -1 810 965.6099803020355) translate(110,87.81286933683518) rotate(0) scale(1,-1)" fill="white" font-size="20" font-family="sans-serif" text-anchor="start" font-weight="normal" class="graphicObject27"><tspan x="0" dy="0">Industry</tspan></text></g><g class="graphicObject28"><rect width="100" height="53.44714379514117" transform="matrix(1 0 0 -1 810 769.9842416283652) translate(0,0) rotate(0)" fill="rgb(79.69773565034228, 108.11532385466035, 171.70510795155343)" stroke="white" stroke-width="2" opacity="1" class="graphicObject26"></rect><text transform="matrix(1 0 0 -1 810 769.9842416283652) translate(110,19.723571897570586) rotate(0) scale(1,-1)" fill="white" font-size="20" font-family="sans-serif" text-anchor="start" font-weight="normal" class="graphicObject27"><tspan x="0" dy="0">Fugitive Emissions</tspan></text></g><g class="graphicObject28"><rect width="100" height="57.64937623112277" transform="matrix(1 0 0 -1 810 710.537097833224) translate(0,0) rotate(0)" fill="rgb(78.51816745655609, 110.51658767772511, 172.50552922590836)" stroke="white" stroke-width="2" opacity="1" class="graphicObject26"></rect><text transform="matrix(1 0 0 -1 810 710.537097833224) translate(110,21.824688115561386) rotate(0) scale(1,-1)" fill="white" font-size="20" font-family="sans-serif" text-anchor="start" font-weight="normal" class="graphicObject27"><tspan x="0" dy="0">Industrial Processes</tspan></text></g><g class="graphicObject28"><rect width="100" height="160.2101116217991" transform="matrix(1 0 0 -1 810 646.8877216021012) translate(0,0) rotate(0)" fill="rgb(88.66271721958924, 166.79805160610846, 174.0268562401264)" stroke="white" stroke-width="2" opacity="1" class="graphicObject26"></rect><text transform="matrix(1 0 0 -1 810 646.8877216021012) translate(110,73.10505581089954) rotate(0) scale(1,-1)" fill="white" font-size="20" font-family="sans-serif" text-anchor="start" font-weight="normal" class="graphicObject27"><tspan x="0" dy="0">Land Use Change</tspan></text></g><g class="graphicObject28"><rect width="100" height="181.22127380170716" transform="matrix(1 0 0 -0.9999999999999999 810 480.6776099803021) translate(0,0) rotate(0)" fill="rgb(96.87756714060032, 177.96182201158507, 171.49921011058453)" stroke="white" stroke-width="2" opacity="1" class="graphicObject26"></rect><text transform="matrix(1 0 0 -0.9999999999999999 810 480.6776099803021) translate(110,83.61063690085358) rotate(0) scale(1,-1)" fill="white" font-size="20" font-family="sans-serif" text-anchor="start" font-weight="normal" class="graphicObject27"><tspan x="0" dy="0">Agriculture</tspan></text></g><g class="graphicObject28"><rect width="100" height="42.022324359816146" transform="matrix(1 0 0 -0.9999999999999999 810 293.45633617859494) translate(0,0) rotate(0)" fill="rgb(82.90468667719853, 101.58688783570301, 169.52896261190102)" stroke="white" stroke-width="2" opacity="1" class="graphicObject26"></rect><text transform="matrix(1 0 0 -0.9999999999999999 810 293.45633617859494) translate(110,14.011162179908073) rotate(0) scale(1,-1)" fill="white" font-size="20" font-family="sans-serif" text-anchor="start" font-weight="normal" class="graphicObject27"><tspan x="0" dy="0">Waste</tspan></text></g></g><g class="graphicObject29"><g class="graphicObject28"><rect width="100" height="137.88575180564675" transform="matrix(1 0 0 -0.9999999999999999 1420 1662.752462245568) translate(0,0) rotate(0)" fill="rgb(79.93443917851499, 154.93654555028962, 176.71248025276464)" stroke="white" stroke-width="2" opacity="1" class="graphicObject26"></rect><text transform="matrix(1 0 0 -0.9999999999999999 1420 1662.752462245568) translate(110,61.942875902823374) rotate(0) scale(1,-1)" fill="white" font-size="20" font-family="sans-serif" text-anchor="start" font-weight="normal" class="graphicObject27"><tspan x="0" dy="0">Road</tspan></text></g><g class="graphicObject28"><rect width="100" height="22.324359816152327" transform="matrix(1.0000000000000002 0 0 -0.9999999999999999 1420 1518.8667104399212) translate(0,0) rotate(0)" fill="rgb(88.43391258557135, 90.33096366508688, 165.77698788836227)" stroke="white" stroke-width="2" opacity="1" class="graphicObject26"></rect><text transform="matrix(1.0000000000000002 0 0 -0.9999999999999999 1420 1518.8667104399212) translate(110,4.162179908076164) rotate(0) scale(1,-1)" fill="white" font-size="20" font-family="sans-serif" text-anchor="start" font-weight="normal" class="graphicObject27"><tspan x="0" dy="0">Air</tspan></text></g><g class="graphicObject28"><rect width="100" height="32.829940906106366" transform="matrix(1 0 0 -0.9999999999999998 1420 1490.542350623769) translate(0,0) rotate(0)" fill="rgb(85.48499210110586, 96.33412322274881, 167.7780410742496)" stroke="white" stroke-width="2" opacity="1" class="graphicObject26"></rect><text transform="matrix(1 0 0 -0.9999999999999998 1420 1490.542350623769) translate(110,9.414970453053183) rotate(0) scale(1,-1)" fill="white" font-size="20" font-family="sans-serif" text-anchor="start" font-weight="normal" class="graphicObject27"><tspan x="0" dy="0">Rail, Ship, &amp; Other Transport</tspan></text></g><g class="graphicObject28"><rect width="100" height="133.94615889691397" transform="matrix(1 0 0 -0.9999999999999999 1420 1451.7124097176627) translate(0,0) rotate(0)" fill="rgb(78.39415481832543, 152.84333859926275, 177.18641390205372)" stroke="white" stroke-width="2" opacity="1" class="graphicObject26"></rect><text transform="matrix(1 0 0 -0.9999999999999999 1420 1451.7124097176627) translate(110,59.973079448456986) rotate(0) scale(1,-1)" fill="white" font-size="20" font-family="sans-serif" text-anchor="start" font-weight="normal" class="graphicObject27"><tspan x="0" dy="0">Residential Buildings</tspan></text></g><g class="graphicObject28"><rect width="100" height="82.73145108338804" transform="matrix(1 0 0 -0.9999999999999998 1420 1311.7662508207486) translate(0,0) rotate(0)" fill="rgb(71.47761979989468, 124.84913112164297, 177.28304370721432)" stroke="white" stroke-width="2" opacity="1" class="graphicObject26"></rect><text transform="matrix(1 0 0 -0.9999999999999998 1420 1311.7662508207486) translate(110,34.36572554169402) rotate(0) scale(1,-1)" fill="white" font-size="20" font-family="sans-serif" text-anchor="start" font-weight="normal" class="graphicObject27"><tspan x="0" dy="0">Commercial Buildings</tspan></text></g><g class="graphicObject28"><rect width="100" height="49.90151017728167" transform="matrix(1 0 0 -0.9999999999999999 1420 1223.0347997373606) translate(0,0) rotate(0)" fill="rgb(80.69299631384939, 106.08925750394945, 171.02975250131647)" stroke="white" stroke-width="2" opacity="1" class="graphicObject26"></rect><text transform="matrix(1 0 0 -0.9999999999999999 1420 1223.0347997373606) translate(110,17.950755088640836) rotate(0) scale(1,-1)" fill="white" font-size="20" font-family="sans-serif" text-anchor="start" font-weight="normal" class="graphicObject27"><tspan x="0" dy="0">Unallocated Fuel Combustion</tspan></text></g><g class="graphicObject28"><rect width="100" height="52.52790544977019" transform="matrix(1.0000000000000002 0 0 -0.9999999999999999 1420 1167.133289560079) translate(0,0) rotate(0)" fill="rgb(79.95576619273302, 107.59004739336493, 171.5300157977883)" stroke="white" stroke-width="2" opacity="1" class="graphicObject26"></rect><text transform="matrix(1.0000000000000002 0 0 -0.9999999999999999 1420 1167.133289560079) translate(110,19.263952724885094) rotate(0) scale(1,-1)" fill="white" font-size="20" font-family="sans-serif" text-anchor="start" font-weight="normal" class="graphicObject27"><tspan x="0" dy="0">Iron &amp; Steel</tspan></text></g><g class="graphicObject28"><rect width="100" height="15.758371634931056" transform="matrix(1 0 0 -0.9999999999999999 1420 1108.605384110309) translate(0,0) rotate(0)" fill="rgb(90.2769878883623, 86.57898894154818, 164.52632964718273)" stroke="white" stroke-width="2" opacity="1" class="graphicObject26"></rect><text transform="matrix(1 0 0 -0.9999999999999999 1420 1108.605384110309) translate(110,0.8791858174655278) rotate(0) scale(1,-1)" fill="white" font-size="20" font-family="sans-serif" text-anchor="start" font-weight="normal" class="graphicObject27"><tspan x="0" dy="0">Aluminum/Non-Ferrous Metals</tspan></text></g><g class="graphicObject28"><rect width="100" height="13.131976362442547" transform="matrix(1 0 0 -0.9999999999999999 1420 1086.413000656599) translate(0,0) rotate(0)" fill="rgb(91.01421800947867, 85.0781990521327, 164.0260663507109)" stroke="white" stroke-width="2" opacity="1" class="graphicObject26"></rect><text transform="matrix(1 0 0 -0.9999999999999999 1420 1086.413000656599) translate(110,-0.4340118187787265) rotate(0) scale(1,-1)" fill="white" font-size="20" font-family="sans-serif" text-anchor="start" font-weight="normal" class="graphicObject27"><tspan x="0" dy="0">Machinery</tspan></text></g><g class="graphicObject28"><rect width="100" height="14.445173998686801" transform="matrix(1.0000000000000002 0 0 -0.9999999999999999 1420 1067.2810242941564) translate(0,0) rotate(0)" fill="rgb(90.64560294892048, 85.82859399684045, 164.27619799894683)" stroke="white" stroke-width="2" opacity="1" class="graphicObject26"></rect><text transform="matrix(1.0000000000000002 0 0 -0.9999999999999999 1420 1067.2810242941564) translate(110,0.22258699934340065) rotate(0) scale(1,-1)" fill="white" font-size="20" font-family="sans-serif" text-anchor="start" font-weight="normal" class="graphicObject27"><tspan x="0" dy="0">Pulp, Paper &amp; Printing</tspan></text></g><g class="graphicObject28"><rect width="100" height="13.131976362442547" transform="matrix(1 0 0 -0.9999999999999999 1420 1046.401838476691) translate(0,0) rotate(0)" fill="rgb(91.01421800947867, 85.0781990521327, 164.0260663507109)" stroke="white" stroke-width="2" opacity="1" class="graphicObject26"></rect><text transform="matrix(1 0 0 -0.9999999999999999 1420 1046.401838476691) translate(110,-0.4340118187787265) rotate(0) scale(1,-1)" fill="white" font-size="20" font-family="sans-serif" text-anchor="start" font-weight="normal" class="graphicObject27"><tspan x="0" dy="0">Food &amp; Tobacco</tspan></text></g><g class="graphicObject28"><rect width="100" height="53.84110308601444" transform="matrix(1 0 0 -0.9999999999999999 1420 1027.2698621142483) translate(0,0) rotate(0)" fill="rgb(79.58715113217482, 108.34044233807266, 171.78014744602422)" stroke="white" stroke-width="2" opacity="1" class="graphicObject26"></rect><text transform="matrix(1 0 0 -0.9999999999999999 1420 1027.2698621142483) translate(110,19.92055154300722) rotate(0) scale(1,-1)" fill="white" font-size="20" font-family="sans-serif" text-anchor="start" font-weight="normal" class="graphicObject27"><tspan x="0" dy="0">Chemicals</tspan></text></g><g class="graphicObject28"><rect width="100" height="65.65988181221273" transform="matrix(1 0 0 -0.9999999999999998 1420 967.4287590282339) translate(0,0) rotate(0)" fill="rgb(76.26961558715114, 115.09399684044234, 174.03133228014744)" stroke="white" stroke-width="2" opacity="1" class="graphicObject26"></rect><text transform="matrix(1 0 0 -0.9999999999999998 1420 967.4287590282339) translate(110,25.829940906106366) rotate(0) scale(1,-1)" fill="white" font-size="20" font-family="sans-serif" text-anchor="start" font-weight="normal" class="graphicObject27"><tspan x="0" dy="0">Cement</tspan></text></g><g class="graphicObject28"><rect width="100" height="91.92383453709782" transform="matrix(1 0 0 -0.9999999999999999 1420 895.7688772160212) translate(0,0) rotate(0)" fill="rgb(68.89731437598736, 130.10189573459715, 179.03396524486573)" stroke="white" stroke-width="2" opacity="1" class="graphicObject26"></rect><text transform="matrix(1 0 0 -0.9999999999999999 1420 895.7688772160212) translate(110,38.96191726854891) rotate(0) scale(1,-1)" fill="white" font-size="20" font-family="sans-serif" text-anchor="start" font-weight="normal" class="graphicObject27"><tspan x="0" dy="0">Other Industry</tspan></text></g><g class="graphicObject28"><rect width="100" height="28.890347997373603" transform="matrix(1.0000000000000002 0 0 -0.9999999999999999 1420 797.8450426789234) translate(0,0) rotate(0)" fill="rgb(86.5908372827804, 94.08293838862559, 167.02764612954186)" stroke="white" stroke-width="2" opacity="1" class="graphicObject26"></rect><text transform="matrix(1.0000000000000002 0 0 -0.9999999999999999 1420 797.8450426789234) translate(110,7.445173998686801) rotate(0) scale(1,-1)" fill="white" font-size="20" font-family="sans-serif" text-anchor="start" font-weight="normal" class="graphicObject27"><tspan x="0" dy="0">T &amp; D Losses</tspan></text></g><g class="graphicObject28"><rect width="100" height="17.07156927117531" transform="matrix(1 0 0 -0.9999999999999999 1420 762.9546946815498) translate(0,0) rotate(0)" fill="rgb(89.9083728278041, 87.32938388625591, 164.77646129541864)" stroke="white" stroke-width="2" opacity="1" class="graphicObject26"></rect><text transform="matrix(1 0 0 -0.9999999999999999 1420 762.9546946815498) translate(110,1.535784635587655) rotate(0) scale(1,-1)" fill="white" font-size="20" font-family="sans-serif" text-anchor="start" font-weight="normal" class="graphicObject27"><tspan x="0" dy="0">Coal Mining</tspan></text></g><g class="graphicObject28"><rect width="100" height="84.04464871963229" transform="matrix(1 0 0 -0.9999999999999998 1420 739.8831254103744) translate(0,0) rotate(0)" fill="rgb(71.10900473933648, 125.5995260663507, 177.53317535545023)" stroke="white" stroke-width="2" opacity="1" class="graphicObject26"></rect><text transform="matrix(1 0 0 -0.9999999999999998 1420 739.8831254103744) translate(110,35.022324359816146) rotate(0) scale(1,-1)" fill="white" font-size="20" font-family="sans-serif" text-anchor="start" font-weight="normal" class="graphicObject27"><tspan x="0" dy="0">Oil/Gas Extraction, Refining, &amp; Processing</tspan></text></g><g class="graphicObject28"><rect width="100" height="143.13854235062377" transform="matrix(1 0 0 -0.9999999999999999 1420 649.8384766907421) translate(0,0) rotate(0)" fill="rgb(81.98815165876778, 157.72748815165875, 176.08056872037915)" stroke="white" stroke-width="2" opacity="1" class="graphicObject26"></rect><text transform="matrix(1 0 0 -0.9999999999999999 1420 649.8384766907421) translate(110,64.56927117531188) rotate(0) scale(1,-1)" fill="white" font-size="20" font-family="sans-serif" text-anchor="start" font-weight="normal" class="graphicObject27"><tspan x="0" dy="0">Deforestation</tspan></text></g><g class="graphicObject28"><rect width="100" height="17.07156927117531" transform="matrix(1 0 0 -0.9999999999999999 1420 500.6999343401185) translate(0,0) rotate(0)" fill="rgb(89.9083728278041, 87.32938388625591, 164.77646129541864)" stroke="white" stroke-width="2" opacity="1" class="graphicObject26"></rect><text transform="matrix(1 0 0 -0.9999999999999999 1420 500.6999343401185) translate(110,1.535784635587655) rotate(0) scale(1,-1)" fill="white" font-size="20" font-family="sans-serif" text-anchor="start" font-weight="normal" class="graphicObject27"><tspan x="0" dy="0">Harvest/Management</tspan></text></g><g class="graphicObject28"><rect width="100" height="18.384766907419564" transform="matrix(1 0 0 -0.9999999999999999 1420 477.62836506894314) translate(0,0) rotate(0)" fill="rgb(89.53975776724592, 88.07977883096365, 165.02659294365455)" stroke="white" stroke-width="2" opacity="1" class="graphicObject26"></rect><text transform="matrix(1 0 0 -0.9999999999999999 1420 477.62836506894314) translate(110,2.192383453709782) rotate(0) scale(1,-1)" fill="white" font-size="20" font-family="sans-serif" text-anchor="start" font-weight="normal" class="graphicObject27"><tspan x="0" dy="0">Agricultural Energy Use</tspan></text></g><g class="graphicObject28"><rect width="100" height="68.28627708470124" transform="matrix(1 0 0 -0.9999999999999999 1420 453.24359816152355) translate(0,0) rotate(0)" fill="rgb(75.53238546603475, 116.59478672985782, 174.53159557661928)" stroke="white" stroke-width="2" opacity="1" class="graphicObject26"></rect><text transform="matrix(1 0 0 -0.9999999999999999 1420 453.24359816152355) translate(110,27.14313854235062) rotate(0) scale(1,-1)" fill="white" font-size="20" font-family="sans-serif" text-anchor="start" font-weight="normal" class="graphicObject27"><tspan x="0" dy="0">Agriculture Soils</tspan></text></g><g class="graphicObject28"><rect width="100" height="70.91267235718976" transform="matrix(1 0 0 -0.9999999999999999 1420 378.9573210768224) translate(0,0) rotate(0)" fill="rgb(74.79515534491838, 118.0955766192733, 175.0318588730911)" stroke="white" stroke-width="2" opacity="1" class="graphicObject26"></rect><text transform="matrix(1 0 0 -0.9999999999999999 1420 378.9573210768224) translate(110,28.45633617859488) rotate(0) scale(1,-1)" fill="white" font-size="20" font-family="sans-serif" text-anchor="start" font-weight="normal" class="graphicObject27"><tspan x="0" dy="0">Livestock &amp; Manure</tspan></text></g><g class="graphicObject28"><rect width="100" height="19.697964543663822" transform="matrix(1.0000000000000002 0 0 -0.9999999999999999 1420 302.0446487196325) translate(0,0) rotate(0)" fill="rgb(89.17114270668773, 88.83017377567141, 165.27672459189046)" stroke="white" stroke-width="2" opacity="1" class="graphicObject26"></rect><text transform="matrix(1.0000000000000002 0 0 -0.9999999999999999 1420 302.0446487196325) translate(110,2.848982271831911) rotate(0) scale(1,-1)" fill="white" font-size="20" font-family="sans-serif" text-anchor="start" font-weight="normal" class="graphicObject27"><tspan x="0" dy="0">Rice Cultivation</tspan></text></g><g class="graphicObject28"><rect width="100" height="22.324359816152327" transform="matrix(1.0000000000000002 0 0 -0.9999999999999999 1420 276.3466841759687) translate(0,0) rotate(0)" fill="rgb(88.43391258557135, 90.33096366508688, 165.77698788836227)" stroke="white" stroke-width="2" opacity="1" class="graphicObject26"></rect><text transform="matrix(1.0000000000000002 0 0 -0.9999999999999999 1420 276.3466841759687) translate(110,4.162179908076164) rotate(0) scale(1,-1)" fill="white" font-size="20" font-family="sans-serif" text-anchor="start" font-weight="normal" class="graphicObject27"><tspan x="0" dy="0">Other Agriculture</tspan></text></g><g class="graphicObject28"><rect width="100" height="22.324359816152327" transform="matrix(1.0000000000000002 0 0 -0.9999999999999999 1420 248.02232435981637) translate(0,0) rotate(0)" fill="rgb(88.43391258557135, 90.33096366508688, 165.77698788836227)" stroke="white" stroke-width="2" opacity="1" class="graphicObject26"></rect><text transform="matrix(1.0000000000000002 0 0 -0.9999999999999999 1420 248.02232435981637) translate(110,4.162179908076164) rotate(0) scale(1,-1)" fill="white" font-size="20" font-family="sans-serif" text-anchor="start" font-weight="normal" class="graphicObject27"><tspan x="0" dy="0">Landfills</tspan></text></g><g class="graphicObject28"><rect width="100" height="19.697964543663822" transform="matrix(1.0000000000000002 0 0 -0.9999999999999999 1420 219.69796454366406) translate(0,0) rotate(0)" fill="rgb(89.17114270668773, 88.83017377567141, 165.27672459189046)" stroke="white" stroke-width="2" opacity="1" class="graphicObject26"></rect><text transform="matrix(1.0000000000000002 0 0 -0.9999999999999999 1420 219.69796454366406) translate(110,2.848982271831911) rotate(0) scale(1,-1)" fill="white" font-size="20" font-family="sans-serif" text-anchor="start" font-weight="normal" class="graphicObject27"><tspan x="0" dy="0">Wastewater, Other Waste</tspan></text></g></g><g class="graphicObject29"><g class="graphicObject28"><rect width="100" height="1000" transform="matrix(1 0 0 -1 2030 1596.3184504267892) translate(0,0) rotate(0)" fill="#9e0142" stroke="white" stroke-width="2" opacity="1" class="graphicObject26"></rect><text transform="matrix(1 0 0 -1 2030 1596.3184504267892) translate(110,493) rotate(0) scale(1,-1)" fill="white" font-size="20" font-family="sans-serif" text-anchor="start" font-weight="normal" class="graphicObject27"><tspan x="0" dy="0">CO2</tspan></text></g><g class="graphicObject28"><rect width="100" height="171.2409717662508" transform="matrix(1 0 0 -1 2030 590.3184504267892) translate(0,0) rotate(0)" fill="rgb(92.97551342812005, 172.65903106898367, 172.6998420221169)" stroke="white" stroke-width="2" opacity="1" class="graphicObject26"></rect><text transform="matrix(1 0 0 -1 2030 590.3184504267892) translate(110,78.6204858831254) rotate(0) scale(1,-1)" fill="white" font-size="20" font-family="sans-serif" text-anchor="start" font-weight="normal" class="graphicObject27"><tspan x="0" dy="0">CH4</tspan></text></g><g class="graphicObject28"><rect width="100" height="121.60210111621798" transform="matrix(1 0 0 -1 2030 413.0774786605384) translate(0,0) rotate(0)" fill="rgb(73.56793048973144, 146.2846234860453, 178.67140600315955)" stroke="white" stroke-width="2" opacity="1" class="graphicObject26"></rect><text transform="matrix(1 0 0 -1 2030 413.0774786605384) translate(110,53.80105055810899) rotate(0) scale(1,-1)" fill="white" font-size="20" font-family="sans-serif" text-anchor="start" font-weight="normal" class="graphicObject27"><tspan x="0" dy="0">N2O</tspan></text></g><g class="graphicObject28"><rect width="100" height="19.04136572554169" transform="matrix(1 0 0 -0.9999999999999999 2030 285.4753775443205) translate(0,0) rotate(0)" fill="rgb(89.35545023696682, 88.45497630331752, 165.1516587677725)" stroke="white" stroke-width="2" opacity="1" class="graphicObject26"></rect><text transform="matrix(1 0 0 -0.9999999999999999 2030 285.4753775443205) translate(110,2.5206828627708457) rotate(0) scale(1,-1)" fill="white" font-size="20" font-family="sans-serif" text-anchor="start" font-weight="normal" class="graphicObject27"><tspan x="0" dy="0">HFCs, PFCs, SF6</tspan></text></g></g></g></svg>